<svg aria-hidden="true" style="width:0;height:0;position:absolute;overflow:hidden" xmlns="http://www.w3.org/2000/svg"><defs><symbol id="icon-logobmc" viewBox="0 0 32 32"><path stroke="#none" d="M15.258 6.797c-.019.032-.077.045-.128.026-.109-.045-.294.019-.25.09.019.026-.026.122-.096.211s-.128.205-.128.262c0 .058-.102.166-.23.243l-.23.134.173.096.173.09-.147.077c-.192.09-.243.294-.077.294.096.006.083.032-.058.134-.218.16-.224.237-.032.307.147.058.147.064-.179.166-.083.026-.09.058-.032.16.038.07.096.115.134.096.032-.026.058.019.058.083 0 .083-.038.122-.109.115-.16-.013-.192.262-.038.301.096.019.083.038-.058.096-.205.083-.23.173-.077.256.122.064.07.205-.077.205-.122 0-.115.23.013.282s.058.166-.102.166c-.09 0-.115.032-.083.109.026.064.07.134.096.154.032.019.019.134-.038.256-.051.122-.096.179-.096.134-.006-.038-.032-.077-.07-.077-.032 0-.064.122-.064.275 0 .224.038.314.192.461.109.102.192.16.192.128 0-.026.051-.006.115.045.186.16.614.403.563.32-.026-.045.058-.019.186.058.154.09.218.173.198.243a4.031 4.031 0 0 0-.077.403c-.019.173-.064.307-.096.307-.109 0-.058.25.07.339.205.141.32.435.32.832v.371l-.89-.045c-.602-.032-1.018-.019-1.299.032-1.082.205-1.696.928-2.579 3.046-.102.243-.115.25-.173.115-.077-.16-.384-.307-.531-.25-.211.077 0 .557.288.646a.207.207 0 0 1 .134.179c0 .077.019.102.038.058.051-.128.147-.09.147.064.006.173.275.499.416.499.051 0 .096.032.096.077 0 .058.019.058.077 0 .109-.109.243-.096.243.032 0 .058.083-.006.198-.166.186-.256.205-.269.333-.179.077.051.154.147.166.211.019.102.006.109-.083.032-.141-.122-.218-.032-.09.102.058.051.154.083.205.064.166-.064.115-.288-.09-.442-.102-.077-.192-.16-.192-.186 0-.096.762-1.024.998-1.216.493-.397.877-.525 1.658-.557.39-.013.8 0 .915.032.288.07 1.446-.019 1.792-.147.486-.179.794-.57 1.408-1.798.608-1.242.922-1.658 1.427-1.914.384-.192.448-.192.634.006.083.09.166.147.179.128.019-.019-.032-.102-.115-.192-.115-.122-.128-.166-.058-.186.237-.077.794-.166 1.325-.205.326-.026.589-.07.589-.102s-.16-.038-.378-.013l-.371.038-.077-.205c-.115-.339-.096-.358.365-.429l.429-.07-.474.006c-.474.013-.48.013-.557-.179-.141-.326-.122-.339.422-.39.282-.019.512-.07.512-.096 0-.064-.141-.064-.659 0-.39.045-.442.026-.518-.23-.038-.128-.013-.141.442-.218.454-.07.71-.186.422-.186-.192 0-.179-.275.013-.371s.07-.096-.704-.006c-1.242.134-2.189.461-2.707.928-.25.23-.256.23-.403.109-.077-.064-.134-.166-.122-.23.013-.058-.026-.128-.077-.147-.058-.019-.102-.077-.102-.128s.038-.07.096-.051c.166.07.237-.038.134-.205-.134-.192-.128-.218.026-.218s.166-.141.032-.256c-.134-.115-.122-.186.032-.147.096.026.128 0 .128-.096 0-.077-.026-.154-.064-.173-.096-.058-.077-.16.026-.122.128.045.179-.147.07-.256-.134-.134-.115-.224.032-.186.154.038.179-.115.032-.237-.134-.115-.122-.211.032-.173s.179-.154.032-.275a.373.373 0 0 1-.096-.25c-.006-.09-.096-.326-.211-.518-.173-.282-.288-.39-.595-.557-.211-.115-.512-.224-.672-.243l-.282-.038.211.096c.269.128.845.717.845.87 0 .064.032.141.064.16.038.019.064.096.064.166s-.026.115-.058.096c-.077-.051-.134.115-.134.365a5.202 5.202 0 0 1-.09.602c-.045.224-.064.384-.032.365.064-.038.026.198-.141.883-.141.557-.173 1.114-.07 1.216.045.045.109.038.198-.006.09-.051.173-.058.25-.013.301.16.294.198-.243 1.306-.55 1.12-.87 1.562-1.286 1.773-.134.07-.262.128-.282.128s-.032-.096-.032-.211c0-.115-.038-.25-.077-.294-.07-.07-.058-.07.058-.013.154.077.467.096.467.019 0-.026-.096-.09-.211-.141-.109-.051-.218-.154-.23-.224-.019-.109-.006-.115.083-.038.141.115.128.032-.032-.23-.134-.218-.134-.224-.026-.627l.109-.41.39.038c.282.032.371.019.339-.032a.164.164 0 0 0-.134-.077c-.045 0-.096-.038-.115-.09s-.192-.134-.384-.192a2.028 2.028 0 0 1-.486-.211c-.154-.122-.282-.557-.224-.742.051-.16-.269-.147-.358.013-.096.186-.077.493.038.614.134.134.704.422.954.486l.192.045-.224.006c-.122 0-.307-.038-.416-.096a1.272 1.272 0 0 0-.314-.128c-.179-.032-.326-.192-.339-.352a1.173 1.173 0 0 0-.09-.326c-.051-.128-.051-.205-.006-.262a.145.145 0 0 0 .013-.166c-.077-.128-.006-.262.134-.262.122 0 .237.026 1.165.256.512.128.653.122.71-.038.038-.102-.474-.275-1.35-.442-.326-.064-.595-.141-.595-.179 0-.09.742-.006 1.229.147.57.166.781.186.806.051s-.435-.307-1.344-.499c-.378-.077-.672-.173-.653-.198.019-.032.064-.038.109-.013a.96.96 0 0 0 .346.026c.16-.006.518.058.813.154.621.186.87.205.87.058 0-.115-.25-.224-.896-.384-.262-.064-.493-.134-.512-.154s-.096-.032-.173-.032c-.083 0-.147-.032-.147-.064.006-.102.55-.038 1.043.134.57.192.749.198.749.026 0-.096-.102-.154-.493-.275-.275-.09-.666-.192-.864-.237-.442-.09-.506-.224-.09-.179.154.019.544.115.87.211.493.154.595.166.64.09.038-.058.032-.115-.019-.166-.077-.077-1.331-.48-1.427-.461-.122.019-.218-.006-.218-.07 0-.122.435-.064 1.075.154.358.122.659.198.678.179.026-.019.038-.083.038-.147 0-.122-.608-.371-1.248-.506-.486-.109-.589-.192-.218-.192.154 0 .557.096.896.218l.621.211v-.147c0-.077-.051-.166-.109-.186-.467-.192-1.19-.416-1.35-.416-.128 0-.192-.032-.192-.096 0-.134.378-.07 1.069.166.608.218.742.23.71.07-.026-.134-.902-.506-1.35-.563-.173-.026-.326-.077-.339-.115s.013-.218.058-.403l.09-.333-.314.006c-.166 0-.326.026-.346.064zm6.368 3.789c.096.115.019.294-.128.294-.141 0-.218-.141-.16-.288.045-.122.192-.122.288-.006zm-.442.064c0 .051.019.134.038.192.032.077 0 .102-.122.102-.154 0-.237-.102-.237-.294 0-.051.064-.09.16-.09s.16.038.16.09zm-.422.076c.109.275-.07.39-.416.262-.179-.07-.211-.064-.333.09-.077.096-.301.25-.493.346s-.518.32-.723.493c-.358.314-.371.32-.525.218-.09-.058-.16-.141-.16-.179 0-.147.685-.736 1.062-.915.371-.179 1.139-.403 1.408-.41.077-.006.16.038.179.096zm-.512.41c-.064.026-.134.038-.154.019-.051-.045.154-.141.218-.102.032.026.006.064-.064.083zm.704.166c.026.096.032.186.013.198-.051.051-.576.141-.627.109-.026-.013.019-.128.096-.25.179-.282.454-.314.518-.058zm-.551-.025c-.032.102-.307.154-.307.058 0-.051.109-.102.275-.128.032 0 .045.032.032.07zm-2.579.115c.019.032-.006.064-.058.064-.058 0-.102-.032-.102-.064 0-.038.026-.064.058-.064.038 0 .083.026.102.064zm2.304.141c.096.141.09.147-.141.224-.25.09-.301.07-.365-.154-.032-.102-.013-.147.07-.166.237-.064.333-.038.435.096zm-.544.275c0 .134-.205.173-.314.064-.096-.096-.09-.115.019-.192.134-.102.294-.026.294.128zm1.568.045c.102.243.077.275-.205.339-.173.032-.218.013-.365-.179-.205-.262-.205-.282-.019-.32.397-.077.499-.051.589.16zm-.704.147c.07.122.109.23.096.243-.019.006-.198.07-.41.134l-.378.115-.16-.166c-.198-.192-.166-.237.275-.416.429-.173.442-.166.576.09zm-1.286-.058c.064.166.045.205-.186.384-.186.141-.243.154-.32.09-.09-.077-.07-.115.141-.333.262-.269.307-.288.365-.141zm-5.312.064c.032.09.026.096-.058.026-.109-.09-.122-.128-.038-.128.032 0 .077.045.096.102zm.364.167c.07.134.07.141-.026.058-.064-.045-.109-.109-.109-.141 0-.096.058-.064.134.083zm4.077.128c.051.07.032.147-.083.346-.083.134-.16.211-.16.166 0-.038-.058-.134-.128-.205-.122-.122-.122-.141-.032-.32.083-.16.122-.186.218-.134a.894.894 0 0 1 .186.147zm1.178.032c.154.134.147.198-.026.346-.186.147-.294.154-.448.013-.115-.102-.115-.109.058-.288.198-.205.256-.218.416-.07zm1.894.179c.045.134.07.256.058.269s-.294.07-.621.128l-.595.109-.147-.192c-.083-.102-.154-.205-.154-.224s.16-.083.358-.147c.358-.115.358-.115.512.032.083.077.154.109.154.07s-.026-.09-.064-.109c-.115-.07-.064-.154.115-.179.269-.038.294-.019.384.243zm-2.803.275c-.256.448-.307.499-.416.39-.083-.083-.07-.134.109-.422.173-.282.224-.32.32-.269.115.064.115.07-.013.301zm.48.077c.038.064-.339.634-.422.64-.019 0-.083-.051-.141-.115-.096-.102-.09-.134.09-.416.16-.262.205-.294.314-.237a.495.495 0 0 1 .16.128zm.896 0c.102.102.173.198.154.211-.013.006-.134.064-.262.122a2.938 2.938 0 0 0-.499.346c-.25.224-.262.23-.416.128a.826.826 0 0 1-.16-.122c0-.154.768-.87.934-.877.032 0 .147.083.25.192zm-2.144.256c.077 0 .083.173.006.218-.032.019-.122-.013-.198-.077-.128-.102-.134-.134-.064-.269l.083-.154.051.141c.032.077.083.141.122.141zm.282.166c.102.038.141.224.058.301-.064.07-.211-.083-.211-.218s.006-.141.154-.083zm-.448.173c.045.07.038.166-.045.333-.09.192-.134.224-.256.186-.211-.064-.211-.07-.058-.384.147-.294.237-.326.358-.134zm-2.33.045c0 .032.045.045.096.026.109-.045.134.134.032.198-.077.045-.032.282.102.614.122.275.096.659-.038.685-.058.006-.102-.038-.109-.128-.006-.083-.026-.32-.038-.531-.032-.429-.09-.614-.211-.691a.122.122 0 0 1-.051-.141c.045-.109.218-.134.218-.032zm3.264.102a.66.66 0 0 1-.07.16c-.051.102-.083.115-.16.051-.09-.077-.122-.262-.051-.333.045-.045.282.064.282.122zm-.525.128c.038.026-.518 1.178-.563 1.178-.026 0-.083-.083-.128-.186-.07-.166-.051-.23.192-.672.237-.429.282-.48.378-.41.058.045.109.083.122.09zm.851.026c.102.058.109.09.038.192-.128.218-.41.115-.333-.122.045-.147.109-.166.294-.07zm-.588.154c.115.134-.486 1.414-.608 1.312a.257.257 0 0 1-.09-.179c0-.128.518-1.222.576-1.222.026 0 .083.038.122.09zm-.98.198c.051.128-.083.288-.205.243-.09-.032-.122-.218-.045-.294.07-.077.211-.045.25.051zm-1.555.096c.019.07.019.128.006.128s-.051-.058-.09-.128c-.038-.07-.045-.128-.013-.128.038 0 .077.058.096.128zm2.823-.09c.154.058.134.134-.224.883-.269.576-.339.678-.416.614-.051-.045-.09-.115-.09-.154 0-.064.582-1.382.614-1.382.006 0 .058.019.115.038zm-1.498.442c0 .032-.109.192-.243.352l-.25.282-.096-.186c-.09-.186-.09-.198.16-.461.237-.243.269-.262.339-.16a.416.416 0 0 1 .09.173zm.237.627c-.179.275-.55.608-.749.672-.179.064-.205.058-.256-.09-.102-.256-.077-.314.154-.422.115-.058.326-.237.461-.39l.25-.288.122.186c.102.166.109.205.019.333zm-1.287.007c.045.186-.006.294-.141.294-.058 0-.09-.07-.09-.224 0-.262.166-.314.23-.07zm-2.016.076c.032.096.045.186.026.205s-.218.045-.442.064l-.41.026-.051-.461h.403c.378 0 .41.013.474.166zm.736.039c-.019.179-.051.211-.205.23a.397.397 0 0 1-.442-.294c-.038-.134-.026-.141.314-.141h.358l-.026.205zm.877-.032c.032.179-.038.275-.198.275-.051 0-.064-.051-.038-.179.083-.326.186-.371.237-.096zm-2.553-.013c.051.141-.026.288-.154.288a.185.185 0 0 1-.154-.096c-.051-.141.026-.288.154-.288.064 0 .128.045.154.096zm4.582.141c0 .154-.384.64-.634.813-.371.25-.506.269-.582.07-.032-.09-.064-.179-.064-.198 0-.013.128-.09.294-.16a2.04 2.04 0 0 0 .55-.448c.205-.243.282-.294.352-.243a.258.258 0 0 1 .083.166zm-4.966.032c.019.109.032.205.026.211a7.052 7.052 0 0 0-.314.179l-.294.166-.077-.16c-.096-.211-.102-.192.198-.41.333-.243.41-.243.461.013zm3.488.288c.045.09.051.186.026.218-.026.026-.288.064-.576.083-.48.038-.531.032-.595-.083a.66.66 0 0 1-.064-.224c0-.115.237-.109.288.013.026.07.051.07.134-.013.141-.147.282-.128.288.038.006.134.013.134.038.019.07-.269.346-.301.461-.051zm1.734.077c0 .147-.32.634-.563.864a1.797 1.797 0 0 1-.538.301c-.352.115-.448.109-.32-.019.045-.045.077-.147.077-.243.006-.128.07-.192.339-.32.23-.109.41-.262.582-.499.198-.262.269-.32.333-.262.051.038.09.122.09.179zm-3.725-.109a.299.299 0 0 1 .077.186c0 .09-.083.115-.493.134-.467.026-.506.019-.653-.134l-.16-.166.288-.038c.499-.07.864-.058.941.019zm.666.07a.448.448 0 0 1 .051.198c0 .102-.032.115-.205.077-.218-.038-.371-.186-.371-.346 0-.07.051-.083.237-.045.134.026.262.077.288.115zm-1.837.109c.141.16.109.192-.307.339-.512.179-.518.179-.621.115-.077-.051-.077-.083.026-.192.122-.134.595-.39.717-.39.038 0 .122.058.186.128zm-1.254.416c0 .032-.083.166-.186.288-.166.198-.198.211-.282.128-.09-.083-.077-.128.096-.41.179-.288.198-.301.282-.192.051.07.09.147.09.186zm4.556-.058c.032.096.045.186.026.211-.064.058-.954.083-1.03.026a.447.447 0 0 1-.115-.192c-.045-.134-.026-.141.454-.166a6.39 6.39 0 0 0 .55-.032c.026-.006.077.064.115.154zm-2.918.135c.058.083.096.166.083.173s-.147.045-.307.09-.333.096-.384.115c-.096.032-.48-.218-.422-.275.077-.083.774-.326.845-.294.045.013.128.102.186.192zm1.056-.115c.122.23.077.262-.333.262-.429 0-.461-.013-.653-.243l-.122-.141h.518c.448 0 .531.019.589.122zm.557-.045a.693.693 0 0 1 .102.192c.032.096 0 .115-.205.115-.198 0-.256-.032-.314-.16a.98.98 0 0 1-.077-.192c0-.07.435-.026.493.045zm-2.925.301c-.006.141-.621.794-.704.742-.109-.07-.07-.16.224-.544.192-.25.326-.365.384-.346.051.026.096.09.096.147zm.346.204.173.134-.365.346c-.378.365-.474.403-.602.25-.058-.07-.058-.115.013-.211.141-.205.531-.64.57-.646.026-.006.115.051.211.128zm2.252.09c.045.122.09.23.09.237 0 .013-.262.032-.589.038-.717.026-1.152.166-1.626.531-.339.256-.352.262-.474.154-.115-.109-.122-.122-.013-.25.058-.077.218-.243.358-.358l.243-.218.25.141c.288.166.333.128.083-.07l-.166-.128.16-.083c.083-.045.275-.102.416-.128.23-.038.269-.019.365.128.064.09.141.166.173.166.038 0 .019-.07-.038-.16-.058-.083-.102-.173-.102-.192s.173-.032.39-.032c.378 0 .384.006.48.224zm.538-.038c0 .07.019.166.038.224.064.166-.269.128-.384-.038-.16-.224-.128-.307.122-.307.179 0 .224.026.224.122zm-4.416 1.158c-.192.384-.371.704-.397.704-.128 0-.096-.166.134-.685.429-.973.397-.934.512-.819.09.083.064.166-.25.8zm.576-.531c0 .102-.608 1.363-.659 1.363-.141 0-.09-.25.166-.794.186-.39.326-.614.39-.614.058 0 .102.019.102.045zm.314.237c.064.07.019.179-.211.538-.275.429-.486.621-.486.429 0-.051.096-.307.218-.57.224-.48.333-.576.48-.397zm.39.256c.058.077.013.173-.243.512-.237.301-.339.39-.39.339-.102-.102-.09-.154.16-.563.23-.384.333-.448.474-.288zm-2.08.332c.307.333.154.474-.166.16-.102-.102-.186-.218-.186-.256 0-.128.198-.07.352.096zm.698.653c.051.083-.07.224-.147.179-.102-.064-.09-.23.019-.23.051 0 .109.026.128.051zm.678.013c0 .032-.013.064-.026.064-.019 0-.051-.032-.07-.064-.019-.038-.006-.064.026-.064.038 0 .07.026.07.064zm-.403.205c-.019.045-.032.013-.032-.077s.013-.122.032-.083a.333.333 0 0 1 0 .16zm.403-.026c0 .032-.058.109-.122.166-.154.141-.518.083-.518-.07 0-.09.013-.09.115 0 .154.141.186.134.224-.019.032-.122.301-.192.301-.077z"/><path stroke="#none" d="M15.718 16.288c-.019.051-.006.096.026.096.038 0 .064-.045.064-.096s-.013-.096-.026-.096-.038.045-.064.096zM15.296 16.314c0 .038.026.083.064.102s.045-.006.026-.058c-.045-.115-.09-.134-.09-.045zM16.192 6.79c0 .032-.032.045-.077.019s-.051-.019-.026.026c.026.038-.013.109-.09.154-.141.09-.173.237-.045.25.179.019.275-.026.384-.173.096-.122.179-.154.416-.16l.301-.006-.256-.083c-.314-.109-.608-.122-.608-.026zM14.566 7.078c-.07.179-.038.25.058.128a.492.492 0 0 0 .096-.179c0-.09-.115-.058-.154.051zM17.286 9.958c0 .07.019.09.038.038.019-.045.013-.102-.006-.122-.019-.026-.038.013-.032.083zM17.158 10.534c0 .07.019.09.038.038.019-.045.013-.102-.006-.122-.019-.026-.038.013-.032.083zM15.891 13.421a1.29 1.29 0 0 1-.07.179c-.019.032.019.019.09-.038.218-.179.262-.192.237-.038-.115.659-.083.813.186.813.186 0 .218-.192.064-.454-.077-.134-.141-.294-.141-.352 0-.09.038-.077.192.07.218.211.23.198.09-.083-.083-.179-.134-.205-.352-.205-.186 0-.262.032-.294.109zM16.992 17.152a1.998 1.998 0 0 0-.416.166l-.224.122.186.019c.294.038.608-.045.678-.179.083-.147.019-.186-.224-.128zM16.064 17.536c-.077.051-.07.064.045.064.077 0 .16-.032.179-.064.051-.083-.096-.083-.224 0zM15.526 17.594c.032.026.134.07.237.096.128.032.173.019.173-.058 0-.07-.07-.096-.237-.096-.141 0-.211.026-.173.058zM6.573 20.781c-.026.019-.045.538-.045 1.152v1.107l.211.006c.333.013.454-.013.57-.115.154-.141.211-.506.128-.819a1.38 1.38 0 0 1-.019-.512c.096-.557-.09-.864-.525-.864-.154 0-.301.019-.32.045zm.493.249c.128.051.198.422.109.595-.045.077-.128.134-.192.134-.096 0-.122-.064-.154-.339-.038-.429-.006-.486.237-.39zm.128 1.152c.122.314.013.602-.224.602-.179 0-.186-.006-.186-.352s.006-.352.186-.352c.109 0 .198.038.224.102zM9.37 20.8c-.141.051-.346.416-.346.608 0 .166.115.346.429.64.23.224.282.314.262.461-.026.218-.256.282-.442.109-.115-.102-.134-.102-.23-.013-.09.096-.083.115.064.269.288.288.742.205.87-.154.109-.314.019-.557-.32-.883-.326-.314-.39-.506-.211-.678.09-.09.115-.09.282-.006.16.083.186.083.224-.019.026-.07-.013-.154-.128-.25-.179-.16-.243-.166-.454-.083zM11.002 20.922c-.147.154-.186.243-.186.467 0 .256.032.307.32.582.237.224.32.352.32.48 0 .32-.192.384-.461.16-.115-.102-.243-.064-.243.077 0 .166.269.352.512.352.282 0 .442-.147.486-.461.051-.288-.09-.557-.422-.819-.275-.218-.32-.397-.154-.582.096-.109.122-.109.288-.026.166.09.186.09.25-.032.058-.109.038-.147-.141-.256-.282-.166-.346-.16-.57.058zM12.563 20.781c-.064.026-.083.314-.083 1.146 0 1.069.006 1.114.128 1.114s.128-.045.134-.691c0-.563.013-.653.07-.493.038.102.109.294.16.416l.096.224.294-.832.006.685c.006.678.006.691.154.691s.147-.006.134-.755c-.013-.41-.019-.915-.026-1.12 0-.314-.019-.365-.122-.365-.09 0-.154.102-.262.448-.077.243-.166.448-.186.448-.026 0-.109-.198-.192-.448-.147-.467-.179-.512-.307-.467zM15.539 20.781c-.237.064-.435.614-.307.851.045.077.205.262.365.416.23.224.282.314.262.461-.026.218-.256.282-.435.115-.141-.122-.256-.077-.256.096 0 .25.48.41.768.256.154-.083.262-.41.211-.646-.019-.115-.166-.314-.346-.493-.326-.314-.39-.506-.211-.678.09-.09.115-.09.282-.006.16.083.186.083.224-.019.026-.07-.013-.154-.128-.25-.166-.147-.218-.16-.429-.102zM19.917 20.787c-.058.038-.077.32-.064 1.158l.019 1.114h.384c.365 0 .384-.013.403-.173s.006-.166-.269-.166h-.294v-.243c0-.397.064-.525.262-.57.141-.026.186-.07.186-.186 0-.134-.032-.154-.224-.154-.186 0-.224-.026-.224-.134 0-.25.122-.378.358-.378.198 0 .224-.019.205-.147-.019-.122-.064-.141-.339-.16-.173-.006-.358.013-.403.038zM21.811 21.453l-.019.717-.282-.685c-.243-.602-.294-.685-.429-.685h-.154v1.12c0 1.075.006 1.12.128 1.12s.128-.045.128-.672c0-.371.019-.672.051-.672.026 0 .16.269.294.595.294.685.333.749.493.749.115 0 .122-.064.122-1.114 0-1.146-.013-1.19-.256-1.19-.032 0-.07.32-.077.717zM23.424 20.8c-.077.045-.102.269-.122 1.126-.013.672.006 1.082.045 1.107.032.019.237.026.454.019.365-.026.39-.032.39-.179 0-.141-.026-.154-.288-.154h-.288v-.762l.224-.045c.179-.032.224-.07.224-.192 0-.134-.032-.154-.23-.154-.224 0-.224-.006-.205-.243.019-.23.026-.237.294-.256.243-.019.275-.038.256-.16s-.064-.141-.339-.16c-.173-.006-.365.013-.416.051zM8.096 20.858c-.058.102-.467 2.176-.429 2.214.096.096.205.006.269-.224.064-.243.083-.256.314-.256s.25.013.288.224c.032.166.077.224.166.224.07 0 .128-.019.128-.051 0-.026-.09-.525-.205-1.114-.198-.998-.224-1.075-.352-1.075-.077 0-.154.026-.179.058zm.179 1.465c-.09.013-.173.006-.186-.006-.019-.019.006-.23.051-.467l.083-.442.205.896-.154.019zM10.24 21.92c0 1.075.006 1.12.128 1.12s.128-.045.128-1.12c0-1.075-.006-1.12-.128-1.12s-.128.045-.128 1.12zM16.384 21.92c0 1.075.006 1.12.128 1.12s.128-.045.128-1.12c0-1.075-.006-1.12-.128-1.12s-.128.045-.128 1.12zM17.126 20.96c-.192.211-.307.608-.301 1.088.006.64.218.992.614.992.237 0 .454-.198.39-.352-.032-.096-.051-.096-.179-.006-.192.134-.282.128-.435-.026-.237-.237-.134-1.376.147-1.549.038-.026.141 0 .224.051.237.154.339.013.141-.198-.192-.205-.416-.205-.602 0zM18.867 20.973c-.09.102-.198.288-.237.416-.083.256-.102.928-.038 1.152.083.262.358.499.576.499.237 0 .454-.198.39-.352-.032-.096-.051-.096-.179-.006-.192.134-.282.128-.435-.026-.237-.237-.134-1.376.147-1.549.038-.026.141 0 .224.051.237.154.339.013.141-.198-.192-.205-.384-.205-.589.013zM22.317 20.845c-.026.019-.045.096-.045.16 0 .083.045.115.16.115h.16v.992c0 .947.006.992.128.992s.128-.045.128-.992v-.992h.16c.128 0 .16-.032.16-.16 0-.154-.013-.16-.403-.16-.224 0-.429.019-.448.045zM24.41 21.933c.006 1.018.019 1.139.115 1.158.09.019.109-.038.128-.352.026-.506.16-.525.39-.051.128.256.205.352.307.352.141 0 .134-.109-.051-.474-.083-.16-.083-.211.045-.506a1.21 1.21 0 0 0 .115-.666c-.045-.486-.166-.595-.659-.595h-.397l.006 1.133zm.64-.781c.134.141.198.525.109.71-.058.134-.371.326-.429.262-.026-.026-.051-.653-.038-.896.013-.198.192-.237.358-.077zM13.888 21.696c0 .947.077 1.248.346 1.318a.47.47 0 0 0 .538-.218c.083-.128.109-.352.128-1.05.026-.845.019-.883-.102-.883-.115 0-.128.058-.154.787-.032.806-.109 1.094-.294 1.056-.154-.032-.192-.25-.198-1.094-.006-.704-.013-.749-.134-.749s-.128.045-.128.832zM15.552 24.16c0 .134-.032.16-.192.16-.243 0-.365.218-.275.493.051.154.096.179.326.186l.269.013v-.506c0-.294-.026-.506-.064-.506-.032 0-.064.07-.064.16zm-.102.262c.128.051.134.365.013.467-.186.154-.397-.25-.218-.429.09-.09.077-.09.205-.038zM14.246 24.205c-.23.326-.058.819.282.819.23 0 .384-.205.384-.518 0-.403-.448-.608-.666-.301zm.416-.013c.154.09.166.518.019.672-.09.09-.122.09-.243.013-.173-.115-.218-.499-.07-.646.122-.122.134-.122.294-.038zM15.936 24.416c-.102.128-.102.39 0 .512s.397.102.435-.032c.026-.077.019-.083-.064-.013a.213.213 0 0 1-.333-.09c-.026-.07.026-.09.218-.09.205 0 .256-.026.256-.115 0-.25-.352-.365-.512-.173zm.371.077c.013.051-.038.083-.141.083-.16 0-.211-.064-.122-.154.064-.064.23-.019.262.07zM16.602 24.416c-.051.128.083.288.237.288.147 0 .224.128.115.198-.051.032-.147.013-.23-.045-.128-.083-.147-.083-.147.006 0 .122.307.198.442.115.16-.102.122-.237-.102-.339-.115-.051-.211-.122-.211-.147 0-.083.218-.134.243-.058.013.045.07.077.122.077.083 0 .083-.019.019-.096-.102-.128-.442-.128-.486 0zM17.344 24.416c-.09.109 0 .134.109.026.077-.077.275-.038.275.058 0 .026-.096.077-.205.109-.166.051-.211.096-.211.224 0 .147.026.16.275.166l.269.013v-.243c0-.134-.019-.288-.038-.346-.051-.128-.365-.134-.474-.006zm.294.448c-.134.102-.23.07-.23-.064 0-.102.198-.16.288-.083.038.038.019.09-.058.147z"/></symbol><symbol id="icon-map-pin" viewBox="0 0 32 32"><path fill="none" stroke="#00000" style="stroke:var(--color1,#00000)" stroke-linejoin="round" stroke-linecap="round" stroke-width="1.333" d="M26.667 13.819C26.667 21.454 16 28 16 28S5.333 21.453 5.333 13.819C5.333 8.396 10.109 4 16 4s10.667 4.396 10.667 9.819v0z"/><path fill="none" stroke="#00000" style="stroke:var(--color1,#90000)" stroke-linejoin="round" stroke-linecap="round" stroke-width="1.333" d="M16 18.667a4 4 0 0 0 0-8v0a4 4 0 0 0 0 8v0z"/></symbol><symbol id="icon-phone" viewBox="0 0 32 32"><path fill="none" stroke="#00000" style="stroke:var(--color1,#00000)" stroke-linejoin="round" stroke-linecap="round" stroke-width="1.333" d="M26.667 21.337v3.227A2.145 2.145 0 0 1 24.32 26.7l.009.001c-3.481-.388-6.626-1.563-9.338-3.343l.081.05a21.09 21.09 0 0 1-6.386-6.353l-.05-.083a20.982 20.982 0 0 1-3.285-9.205l-.008-.095a2.145 2.145 0 0 1 2.136-2.338h3.239c1.079 0 1.972.797 2.123 1.834l.001.012c.136 1.029.387 2.04.751 3.013a2.144 2.144 0 0 1-.483 2.264l-1.363 1.361c1.555 2.7 3.736 4.881 6.353 6.392l.083.044 1.363-1.361a2.14 2.14 0 0 1 2.278-.477l-.015-.005c.973.363 1.984.613 3.013.751a2.148 2.148 0 0 1 1.847 2.125l-.001.056v-.003z"/></symbol><symbol id="icon-mail" viewBox="0 0 32 32"><path fill="none" stroke="#00000" style="stroke:var(--color1,#00000)" stroke-linejoin="round" stroke-linecap="round" stroke-width="1.333" d="M6.4 6.667h19.2C26.92 6.667 28 7.716 28 9v14c0 1.283-1.08 2.333-2.4 2.333H6.4C5.08 25.333 4 24.282 4 23V9c0-1.284 1.08-2.333 2.4-2.333z"/><path fill="none" stroke="#00000" style="stroke:var(--color1,#00000)" stroke-linejoin="round" stroke-linecap="round" stroke-width="1.333" d="m26.667 9.333-10.667 8-10.667-8"/></symbol><symbol id="icon-clock" viewBox="0 0 32 32"><path fill="#212121" style="fill:var(--color1,#212121)" d="M31.296 15.301C31.295 6.849 24.441-.002 15.988 0S.685 6.855.687 15.308c.002 6.788 4.422 12.543 10.541 14.545l.108.031a.667.667 0 0 0 .529-.065.636.636 0 0 0 .283-.357l3.865-12.25a1.913 1.913 0 1 0-.852-3.63l.011-.005-5.106-5.107a.638.638 0 0 0-.902.902l5.103 5.109a1.847 1.847 0 0 0-.191.826c0 .602.283 1.137.723 1.48l.004.003-3.682 11.673C3.843 25.782.117 17.709 2.797 10.431S13.551-.573 20.829 2.108c7.278 2.681 11.004 10.754 8.323 18.032-1.345 3.581-4.003 6.406-7.374 7.938l-.088.036-.398-1.874a.639.639 0 0 0-1.05-.343l.001-.001-3.837 3.426a.637.637 0 0 0 .227 1.083l.005.001 4.899 1.563a.637.637 0 0 0 .818-.744l.001.004-.391-1.839c5.528-2.374 9.329-7.772 9.329-14.057v-.034.002zm-15.304-.637a.638.638 0 0 1 0 1.276.638.638 0 0 1 0-1.276zm2.1 14.864 2.184-1.948.603 2.84-2.787-.892z"/><path fill="#2196f3" style="fill:var(--color2,#2196f3)" d="M15.354 3.185V4.46a.638.638 0 0 0 1.276 0V3.185a.638.638 0 1 0-1.276 0zM3.876 14.664a.638.638 0 0 0 0 1.276h1.275a.638.638 0 0 0 0-1.276H3.876zm24.232 1.275a.638.638 0 0 0 0-1.276h-1.275a.638.638 0 0 0 0 1.276h1.275z"/></symbol><symbol id="icon-facebook" viewBox="0 0 32 32"><path d="M21.328 5.312h2.923V.224A36.483 36.483 0 0 0 20.143 0h-.156.008c-4.213 0-7.099 2.65-7.099 7.52V12H8.25v5.688h4.646V32h5.699V17.69h4.459l.707-5.688h-5.168V8.08c0-1.643.443-2.768 2.734-2.768z"/></symbol><symbol id="icon-instagram" viewBox="0 0 32 32"><path d="M30.625 9A7.628 7.628 0 0 0 23 1.375H9A7.63 7.63 0 0 0 1.375 9v14A7.628 7.628 0 0 0 9 30.625h14A7.628 7.628 0 0 0 30.625 23V9zm-1.25 0v14A6.379 6.379 0 0 1 23 29.375H9A6.379 6.379 0 0 1 2.625 23V9A6.379 6.379 0 0 1 9 2.625h14A6.379 6.379 0 0 1 29.375 9z"/><path d="M16 8.75c-4.002 0-7.25 3.249-7.25 7.25s3.249 7.25 7.25 7.25c4.002 0 7.25-3.249 7.25-7.25S20.001 8.75 16 8.75zM16 10c3.311 0 6 2.689 6 6s-2.689 6-6 6-6-2.689-6-6 2.689-6 6-6zM24.5 5.375a2.126 2.126 0 1 0 .002 4.252 2.126 2.126 0 0 0-.002-4.252zm0 1.25a.875.875 0 1 1 0 1.75.875.875 0 0 1 0-1.75z"/></symbol><symbol id="icon-linkedin" viewBox="0 0 32 32"><path d="M31.992 32H32V20.262c0-5.741-1.237-10.163-7.947-10.163-3.227 0-5.392 1.77-6.277 3.45h-.093v-2.914h-6.365v21.363h6.627V21.42c0-2.786.528-5.48 3.978-5.48 3.398 0 3.448 3.179 3.448 5.658V32h6.621zM.528 10.635h6.635V32H.528V10.635zM3.843 0A3.843 3.843 0 0 0 0 3.843c0 2.12 1.722 3.878 3.843 3.878 2.12 0 3.842-1.757 3.842-3.878S5.965.002 3.844 0z"/></symbol><symbol id="icon-smartphone" viewBox="0 0 20 32"><path d="M17.003 0H2.998A3.004 3.004 0 0 0-.003 3.001V29.01a3.004 3.004 0 0 0 3.001 3.001h14.005a3.004 3.004 0 0 0 3.001-3.001V3.001A3.004 3.004 0 0 0 17.003 0zM2.998 2.001h14.005a1 1 0 0 1 1 1v21.007H1.997V3.001a1 1 0 0 1 1-1zm14.005 28.01H2.998a1 1 0 0 1-1-1V26.01h16.006v3.001a1 1 0 0 1-1 1z"/><path d="M4.706 27.488a.89.89 0 0 1 .001 1.32l-.001.001a1.048 1.048 0 0 1-1.417 0l.001.001a.89.89 0 0 1-.001-1.32l.001-.001a1.048 1.048 0 0 1 1.417 0l-.001-.001z"/></symbol><symbol id="icon-twitter" viewBox="0 0 32 32"><path d="M32 6.078c-1.1.493-2.376.857-3.713 1.028l-.068.007a6.556 6.556 0 0 0 2.873-3.579l.013-.046a12.89 12.89 0 0 1-4.076 1.573l-.084.014A6.558 6.558 0 0 0 15.6 9.557v.004c0 .52.043 1.021.152 1.496-5.454-.266-10.28-2.88-13.522-6.861a6.524 6.524 0 0 0-.902 3.313v.001a6.57 6.57 0 0 0 2.914 5.451 6.453 6.453 0 0 1-2.994-.823l.033.017v.072a6.592 6.592 0 0 0 5.213 6.44l.043.008a6.403 6.403 0 0 1-1.662.215h-.061.003c-.419 0-.843-.024-1.242-.112.85 2.598 3.261 4.509 6.13 4.57a13.096 13.096 0 0 1-8.123 2.8H1.57h.001c-.538 0-1.053-.026-1.57-.091 2.827 1.846 6.287 2.944 10.004 2.944h.063-.003c12.072 0 18.672-10 18.672-18.669 0-.288-.01-.57-.024-.848a13.19 13.19 0 0 0 3.258-3.356l.03-.047z"/></symbol><symbol id="icon-close-black-18dp-2-1-1" viewBox="0 0 32 32"><path d="m26.671 7.304-1.97-1.97-7.809 7.809-7.809-7.809-1.97 1.97 7.809 7.809-7.809 7.809 1.97 1.97 7.809-7.809 7.809 7.809 1.97-1.97-7.809-7.809 7.809-7.809z"/></symbol><symbol id="icon-check" viewBox="0 0 42 32"><path stroke-width=".64" d="m6.264 15.206-.221-.211-.221.208-3.085 2.925.243.234 11.411 10.882.221-.211L38.873 5.889l-.243-.23-3.044-2.903-.221.211-20.974 19.992-8.127-7.752z"/></symbol><symbol id="icon-email" viewBox="0 0 32 32"><path d="M26.671 5.334H5.334a2.663 2.663 0 0 0-2.653 2.667l-.014 16.003c0 1.467 1.2 2.667 2.667 2.667h21.337c1.467 0 2.667-1.2 2.667-2.667V8.001c0-1.467-1.2-2.667-2.667-2.667zm-.534 5.669-9.427 5.893a1.343 1.343 0 0 1-1.421-.004l.006.003-9.427-5.893a1.133 1.133 0 1 1 1.205-1.918l-.004-.003 8.935 5.587 8.935-5.588a1.133 1.133 0 1 1 1.206 1.918l-.005.003z"/></symbol><symbol id="icon-phone" viewBox="0 0 32 32"><path d="m24.886 19.777-3.268-.373a2.555 2.555 0 0 0-2.11.732l-2.368 2.368c-3.67-1.894-6.586-4.811-8.429-8.373l-.051-.108 2.383-2.377a2.555 2.555 0 0 0 .731-2.123l.001.012-.373-3.243a2.578 2.578 0 0 0-2.557-2.276H6.616c-1.454 0-2.664 1.209-2.575 2.664.683 10.988 9.472 19.763 20.448 20.446 1.453.089 2.664-1.12 2.664-2.575v-2.238A2.55 2.55 0 0 0 24.9 19.78l-.012-.001z"/></symbol><symbol id="icon-person" viewBox="0 0 32 32"><path d="M16.003 16.003a5.334 5.334 0 1 0 0-10.668 5.334 5.334 0 1 0 0 10.668zm0 2.667c-3.561 0-10.668 1.787-10.668 5.334v1.334c0 .733.599 1.334 1.334 1.334h18.67c.733 0 1.334-.601 1.334-1.334v-1.334c0-3.547-7.109-5.334-10.668-5.334z"/></symbol><symbol id="icon-send" viewBox="0 0 32 32"><path d="M32.011 0 0 18.006l10.23 3.788L26.009 7.002 14.007 23.194l.009.003-.012-.003v8.816l5.737-6.693 7.269 2.692 5-28.01z"/></symbol><symbol id="icon-menu_open" viewBox="0 0 32 32"><path d="M6.4 11.734V9.6h19.2v2.134H6.4zm0 5.332h19.2v-2.133H6.4v2.133zm0 5.334h19.2v-2.134H6.4V22.4z"/></symbol><symbol id="icon-menu_close" viewBox="0 0 32 32"><path d="M31.453 3.168 28.285 0l-12.56 12.558L3.167 0-.001 3.168l12.558 12.558-12.558 12.56 3.168 3.168 12.558-12.56 12.56 12.56 3.168-3.168-12.56-12.56 12.56-12.558z"/></symbol></defs></svg>