<svg xmlns="http://www.w3.org/2000/svg" width="512mm" height="512mm" viewBox="0 0 1814.173 1814.173" id="svg12035" version="1.1"><defs id="defs12037"><clipPath clipPathUnits="userSpaceOnUse" id="clipPath4870"><path d="M0 4629.055h3590.051V0H0v4629.055Z" id="path4872"/></clipPath><clipPath clipPathUnits="userSpaceOnUse" id="clipPath4890"><path d="M345.273 2725.925v-102.258c0-39.537 32.045-71.584 71.581-71.584s71.581 32.047 71.581 71.584v102.258c0 39.535-32.045 71.582-71.581 71.582s-71.581-32.047-71.581-71.582" id="path4892"/></clipPath><clipPath clipPathUnits="userSpaceOnUse" id="clipPath4898"><path d="M439.58 2699.84h51.364v-20.07H439.58v20.07z" id="path4900"/></clipPath><clipPath clipPathUnits="userSpaceOnUse" id="clipPath4914"><path d="M439.58 2666.93h51.364v-20.06H439.58v20.06z" id="path4916"/></clipPath><clipPath clipPathUnits="userSpaceOnUse" id="clipPath4930"><path d="M439.58 2634.03h51.364v-20.07H439.58v20.07z" id="path4932"/></clipPath><clipPath clipPathUnits="userSpaceOnUse" id="clipPath4946"><path d="M343.27 2699.84h51.365v-20.07H343.27v20.07z" id="path4948"/></clipPath><clipPath clipPathUnits="userSpaceOnUse" id="clipPath4962"><path d="M343.27 2666.93h51.365v-20.06H343.27v20.06z" id="path4964"/></clipPath><clipPath clipPathUnits="userSpaceOnUse" id="clipPath4978"><path d="M343.27 2634.03h51.365v-20.07H343.27v20.07z" id="path4980"/></clipPath><clipPath clipPathUnits="userSpaceOnUse" id="clipPath4994"><path d="M345.273 2725.925v-102.258c0-39.537 32.045-71.584 71.581-71.584s71.581 32.047 71.581 71.584v102.258c0 39.535-32.045 71.582-71.581 71.582s-71.581-32.047-71.581-71.582" id="path4996"/></clipPath><clipPath clipPathUnits="userSpaceOnUse" id="clipPath5002"><path d="M253.382 2879.61h208.669v-208.67H253.382v208.67z" id="path5004"/></clipPath><clipPath clipPathUnits="userSpaceOnUse" id="clipPath5018"><path d="M0 4629.055h3590.051V0H0v4629.055Z" id="path5020"/></clipPath><clipPath clipPathUnits="userSpaceOnUse" id="clipPath5026"><path d="M410.57 2791h17.913v-11.9H410.57v11.9z" id="path5028"/></clipPath><clipPath clipPathUnits="userSpaceOnUse" id="clipPath5042"><path d="M350.468 2786.98h55.586v-80.15h-55.586v80.15z" id="path5044"/></clipPath><clipPath clipPathUnits="userSpaceOnUse" id="clipPath5058"><path d="M508.887 2613.647c-9.311-40.973-48.244-71.581-92.034-71.581-43.788 0-82.721 30.608-92.033 71.581h-20.451c9.027-49.073 51.774-87.021 102.259-91.574v-20.911h-10.226c-5.646 0-10.226-4.583-10.226-10.225 0-5.652 4.58-10.226 10.226-10.226h40.904a10.223 10.223 0 0 1 10.225 10.226c0 5.642-4.578 10.225-10.225 10.225H427.08v20.911c50.485 4.553 93.232 42.501 102.26 91.574h-20.453z" id="path5060"/></clipPath><clipPath clipPathUnits="userSpaceOnUse" id="clipPath5066"><path d="M404.801 2528.35h40.664v-27.19h-40.664v27.19z" id="path5068"/></clipPath><clipPath clipPathUnits="userSpaceOnUse" id="clipPath5082"><path d="M0 4629.055h3590.051V0H0v4629.055Z" id="path5084"/></clipPath><clipPath clipPathUnits="userSpaceOnUse" id="clipPath5094"><path d="M509.443 2616.847c-.656-3.277-1.694-6.506-2.782-9.66a115.972 115.972 0 0 0-1.61-4.381c-.222-.567-.454-1.129-.68-1.694-.054-.125-.107-.25-.164-.375-1.639-3.598-3.368-7.14-5.315-10.584-2.347-4.151-4.976-8.102-7.771-11.963a3.432 3.432 0 0 1-.324-.531c-.22-.236-.45-.46-.568-.605a103.058 103.058 0 0 0-7.566-8.374 99.947 99.947 0 0 0-6.232-5.677c-.657-.55-4.134-3.152-1.281-1.075-1.09-.793-2.166-1.603-3.276-2.371-4.942-3.421-10.18-6.219-15.606-8.779-.154-.067-.284-.123-.393-.172-.303-.122-.605-.247-.909-.366a103.74 103.74 0 0 0-6.159-2.194 107.92 107.92 0 0 0-9.94-2.661 113.68 113.68 0 0 0-5.552-1.068c-.747-.124-1.497-.233-2.248-.342-.376-.043-1.121-.135-1.43-.169-3.939-.426-7.891-.649-11.851-.739-.206 0-.405-.024-.606-.043-.202.019-.402.039-.608.043-3.96.09-7.911.313-11.851.739-.309.034-1.054.126-1.43.169-.75.109-1.501.218-2.248.342-1.859.31-3.711.666-5.552 1.068a107.92 107.92 0 0 0-9.94 2.661c-1.49.478-2.969.99-4.436 1.535-.577.215-1.151.435-1.723.659-.303.119-.606.244-.908.366l-.392.172c-5.428 2.56-10.666 5.358-15.608 8.779-1.11.768-2.185 1.578-3.275 2.371 2.852-2.077-.624.525-1.282 1.075a99.947 99.947 0 0 0-6.232 5.677 103.058 103.058 0 0 0-5.039 5.37c-.861.986-1.703 1.987-2.527 3.004-.117.145-.348.369-.568.605a3.355 3.355 0 0 1-.324.531c-2.795 3.861-5.424 7.812-7.771 11.963-1.947 3.444-3.675 6.986-5.315 10.584-.055.125-.11.25-.163.375-.227.565-.459 1.127-.68 1.694-.566 1.45-1.105 2.91-1.611 4.381-1.088 3.154-2.126 6.383-2.78 9.66-1.275 6.379-8.863 10.043-14.81 8.409-6.648-1.827-9.686-8.411-8.408-14.809 2.141-10.719 6.906-21.345 12.099-30.865 11.212-20.552 28.499-38.297 49.722-48.475 16.649-7.984 34.628-11.701 53.052-12.117.203 0 .406.01.608.021.202-.011.403-.025.606-.021 18.424.416 36.403 4.133 53.052 12.117 21.223 10.178 38.511 27.923 49.723 48.475 5.193 9.52 9.958 20.146 12.099 30.865 1.277 6.398-1.761 12.982-8.409 14.809-.954.262-1.951.388-2.957.388-5.263 0-10.782-3.442-11.851-8.797" id="path5096"/></clipPath><clipPath clipPathUnits="userSpaceOnUse" id="clipPath5102"><path d="M353.901 2620.38h179.045v-109.15H353.901v109.15z" id="path5104"/></clipPath><clipPath clipPathUnits="userSpaceOnUse" id="clipPath2734"><path d="M0 4629.055h3590.051V0H0v4629.055Z" id="path2736"/></clipPath><clipPath clipPathUnits="userSpaceOnUse" id="clipPath2750"><path d="M1537.76 2750.75h14.72v-14.71h-14.72v14.71z" id="path2752"/></clipPath><clipPath clipPathUnits="userSpaceOnUse" id="clipPath2766"><path d="M1391.85 2751.33h21.14v-23.36h-21.14v23.36z" id="path2768"/></clipPath><clipPath clipPathUnits="userSpaceOnUse" id="clipPath2794"><path d="M1412.992 2731.245v-166.86l264.205-.046v166.906h-264.205z" id="path2796"/></clipPath><clipPath clipPathUnits="userSpaceOnUse" id="clipPath2802"><path d="M1332.89 2815.21h241.39v-241.4h-241.39v241.4z" id="path2804"/></clipPath><clipPath clipPathUnits="userSpaceOnUse" id="clipPath2818"><path d="M1354.857 2548.527c-7.455 0-13.554-6.099-13.554-13.554 0-7.454 6.099-13.554 13.554-13.554h384.258c7.455 0 13.554 6.1 13.554 13.554 0 7.455-6.099 13.554-13.554 13.554h-384.258z" id="path2820"/></clipPath><clipPath clipPathUnits="userSpaceOnUse" id="clipPath2826"><path d="M1331.29 2534.97h429.69v-82.83h-429.69v82.83z" id="path2828"/></clipPath><clipPath clipPathUnits="userSpaceOnUse" id="clipPath742"><path d="M0 4629.055h3590.051V0H0v4629.055Z" id="path744"/></clipPath><clipPath clipPathUnits="userSpaceOnUse" id="clipPath758"><path d="M2515.754 2761.197c-28.052 0-51.001-22.95-51.001-51.001v-180.434c0-28.05 22.949-51.001 51.001-51.001h151.359c28.05 0 51.001 22.951 51.001 51.001v180.434c0 28.051-22.951 51.001-51.001 51.001h-151.359z" id="path760"/></clipPath><clipPath clipPathUnits="userSpaceOnUse" id="clipPath766"><path d="M2530.43 2778.56h209.07v-298.84h-209.07v298.84z" id="path768"/></clipPath><clipPath clipPathUnits="userSpaceOnUse" id="clipPath782"><path d="M0 4629.055h3590.051V0H0v4629.055Z" id="path784"/></clipPath><clipPath clipPathUnits="userSpaceOnUse" id="clipPath794"><path d="M2526.1 2675.29h130.66v-110.62H2526.1v110.62z" id="path796"/></clipPath><clipPath clipPathUnits="userSpaceOnUse" id="clipPath818"><path d="M2551.86 2777.377h-9.51c-7.841 0-14.256-6.415-14.256-14.258v-43.872c0-7.841 6.415-14.257 14.256-14.257h98.165c7.842 0 14.259 6.416 14.259 14.257v43.872c0 7.843-6.417 14.258-14.259 14.258h-9.509c-8.196 13.249-22.85 22.078-39.573 22.078-16.721 0-31.377-8.829-39.573-22.078" id="path820"/></clipPath><clipPath clipPathUnits="userSpaceOnUse" id="clipPath826"><path d="M2496.61 2832.63h110.5v-110.5h-110.5v110.5z" id="path828"/></clipPath><clipPath clipPathUnits="userSpaceOnUse" id="clipPath1962"><path d="M0 4629.055h3590.051V0H0v4629.055Z" id="path1964"/></clipPath><clipPath clipPathUnits="userSpaceOnUse" id="clipPath1978"><path d="M3072.7 2710.391c-30.314 0-55.113-24.8-55.113-55.112v-32.341c0-30.312 24.799-55.113 55.113-55.113h172.546c30.313 0 55.113 24.801 55.113 55.113v32.341c0 30.312-24.8 55.112-55.113 55.112H3072.7z" id="path1980"/></clipPath><clipPath clipPathUnits="userSpaceOnUse" id="clipPath1994"><path d="M3053.579 2721.699c-27.378 0-49.777-22.401-49.777-49.779v-65.624c0-27.378 22.399-49.777 49.777-49.777h210.788c27.378 0 49.779 22.399 49.779 49.777v65.624c0 27.378-22.401 49.779-49.779 49.779h-210.788z" id="path1996"/></clipPath><clipPath clipPathUnits="userSpaceOnUse" id="clipPath2002"><path d="M2916.28 2806.2h228.91v-228.91h-228.91v228.91z" id="path2004"/></clipPath><clipPath clipPathUnits="userSpaceOnUse" id="clipPath450"><path d="M288.626 2176.9c0-72.3 58.612-130.912 130.912-130.912 72.301 0 130.912 58.612 130.912 130.912 0 72.3-58.611 130.912-130.912 130.912-72.3 0-130.912-58.612-130.912-130.912" id="path452"/></clipPath><clipPath clipPathUnits="userSpaceOnUse" id="clipPath458"><path d="M220.35 2368.95h263.073v-263.07H220.35v263.07z" id="path460"/></clipPath><clipPath clipPathUnits="userSpaceOnUse" id="clipPath474"><path d="M373.761 2135.28h93.818v-98.84h-93.818v98.84z" id="path476"/></clipPath><clipPath clipPathUnits="userSpaceOnUse" id="clipPath406"><path d="M0 4629.055h3590.051V0H0v4629.055Z" id="path408"/></clipPath><clipPath clipPathUnits="userSpaceOnUse" id="clipPath418"><path d="M398.869 2294.79h25.217v-16.74h-25.217v16.74z" id="path420"/></clipPath><clipPath clipPathUnits="userSpaceOnUse" id="clipPath434"><path d="M301.651 2285.18h78.252v-112.84h-78.252v112.84z" id="path436"/></clipPath><clipPath clipPathUnits="userSpaceOnUse" id="clipPath382"><path d="m363.893 2070.568 10.547-45.235c2.813-15.235 9.967-22.148 22.148-22.148h43.945c12.182 0 19.688 8.759 22.149 22.148l10.547 45.235H363.893z" id="path384"/></clipPath><clipPath clipPathUnits="userSpaceOnUse" id="clipPath390"><path d="M360.026 2079.89h117.597v-47.64H360.026v47.64z" id="path392"/></clipPath><clipPath clipPathUnits="userSpaceOnUse" id="clipPath1038"><path d="M958.956 2565.9h15.085v-33.82h-15.085v33.82z" id="path1040"/></clipPath><clipPath clipPathUnits="userSpaceOnUse" id="clipPath1022"><path d="M1037.99 2646.67h33.82v-15.08h-33.82v15.08z" id="path1024"/></clipPath><clipPath clipPathUnits="userSpaceOnUse" id="clipPath1006"><path d="M858.937 2646.67h33.824v-15.08h-33.824v15.08z" id="path1008"/></clipPath><clipPath clipPathUnits="userSpaceOnUse" id="clipPath990"><path d="M958.956 2745.99h15.085v-33.82h-15.085v33.82z" id="path992"/></clipPath><clipPath clipPathUnits="userSpaceOnUse" id="clipPath974"><path d="M849.36 2736.1h76.792v-110.72H849.36v110.72z" id="path976"/></clipPath><clipPath clipPathUnits="userSpaceOnUse" id="clipPath958"><path d="M944.764 2745.54h24.747v-16.43h-24.747v16.43z" id="path960"/></clipPath><clipPath clipPathUnits="userSpaceOnUse" id="clipPath874"><path d="M809.648 2639.108c0-86.074 69.777-155.852 155.852-155.852 86.074 0 155.852 69.778 155.852 155.852 0 86.075-69.778 155.852-155.852 155.852-86.075 0-155.852-69.777-155.852-155.852" id="path876"/></clipPath><clipPath clipPathUnits="userSpaceOnUse" id="clipPath882"><path d="M885.074 2737.98h310.146v-303.19H885.074v303.19z" id="path884"/></clipPath><clipPath clipPathUnits="userSpaceOnUse" id="clipPath898"><path d="M0 4629.055h3590.051V0H0v4629.055Z" id="path900"/></clipPath><clipPath clipPathUnits="userSpaceOnUse" id="clipPath926"><path d="M843.893 2639.108c0-67.162 54.444-121.607 121.607-121.607 67.162 0 121.607 54.445 121.607 121.607 0 67.163-54.445 121.608-121.607 121.608-67.163 0-121.607-54.445-121.607-121.608" id="path928"/></clipPath><clipPath clipPathUnits="userSpaceOnUse" id="clipPath934"><path d="M751.161 2822.7H966.44v-215.28H751.161v215.28z" id="path936"/></clipPath><clipPath clipPathUnits="userSpaceOnUse" id="clipPath1190"><path d="M1898.967 2558.199v-23.168c0-16.568 13.557-30.126 30.125-30.126h226.816c16.569 0 30.125 13.558 30.125 30.126v23.168h-287.066z" id="path1192"/></clipPath><clipPath clipPathUnits="userSpaceOnUse" id="clipPath1198"><path d="M1898.97 2564.05h304.52v-70.83h-304.52v70.83z" id="path1200"/></clipPath><clipPath clipPathUnits="userSpaceOnUse" id="clipPath1166"><path d="m1949.92 2773.97-47.442-68.69h281.069l-47.746 68.69H1949.92z" id="path1168"/></clipPath><clipPath clipPathUnits="userSpaceOnUse" id="clipPath1174"><path d="M1822.04 2917.04h239.92v-239.92h-239.92v239.92z" id="path1176"/></clipPath><clipPath clipPathUnits="userSpaceOnUse" id="clipPath1090"><path d="M0 4629.055h3590.051V0H0v4629.055Z" id="path1092"/></clipPath><clipPath clipPathUnits="userSpaceOnUse" id="clipPath1134"><path d="M1904.51 2664.22h25.46v-26.6h-25.46v26.6z" id="path1136"/></clipPath><clipPath clipPathUnits="userSpaceOnUse" id="clipPath1150"><path d="M1904.57 2550.56h37.41v-39.1h-37.41v39.1z" id="path1152"/></clipPath><clipPath clipPathUnits="userSpaceOnUse" id="clipPath1066"><path d="M1955.566 2705.28c-28.05 0-50.999-22.95-50.999-50.999v-99.035c0-28.049 22.949-50.999 50.999-50.999h173.65c28.05 0 51 22.95 51 50.999v99.035c0 28.049-22.95 50.999-51 50.999h-173.65z" id="path1068"/></clipPath><clipPath clipPathUnits="userSpaceOnUse" id="clipPath1074"><path d="M1902.48 2672.8h294.75v-108.2h-294.75v108.2z" id="path1076"/></clipPath><clipPath clipPathUnits="userSpaceOnUse" id="clipPath2138"><path d="M810 2171.991c0-35.206 13.418-65.093 38.692-86.612v-54.854l54.522 31.569c7.516-1.228 24.608-2.55 32.534-2.55 69.447 0 116.073 51.68 116.073 112.447 0 60.766-58.258 110.029-116.073 110.029-69.543 0-125.748-49.263-125.748-110.029" id="path2140"/></clipPath><clipPath clipPathUnits="userSpaceOnUse" id="clipPath2146"><path d="M785.794 2363.06h231.186v-231.18H785.794v231.18z" id="path2148"/></clipPath><clipPath clipPathUnits="userSpaceOnUse" id="clipPath2162"><path d="M845.903 2263.32h231.857v-265.76H845.903v265.76z" id="path2164"/></clipPath><clipPath clipPathUnits="userSpaceOnUse" id="clipPath2114"><path d="M0 4629.055h3590.051V0H0v4629.055Z" id="path2116"/></clipPath><clipPath clipPathUnits="userSpaceOnUse" id="clipPath2090"><path d="M904.782 2132.281c0-54.333 41.689-100.541 103.785-100.541 7.085 0 22.368 1.183 29.087 2.281l48.751-28.227v49.046c22.597 19.24 34.595 45.963 34.595 77.441 0 54.333-50.253 98.379-112.433 98.379-51.695 0-103.785-44.046-103.785-98.379" id="path2092"/></clipPath><clipPath clipPathUnits="userSpaceOnUse" id="clipPath2098"><path d="M968.319 2289.07h206.711v-206.71H968.319v206.71z" id="path2100"/></clipPath><clipPath clipPathUnits="userSpaceOnUse" id="clipPath2386"><path d="M1526.05 2299.78h51.68v-22.41h-51.68v22.41z" id="path2388"/></clipPath><clipPath clipPathUnits="userSpaceOnUse" id="clipPath2354"><path d="M1546.986 2151.491v-170.627l131.374 73.603a39.427 39.427 0 0 1 20.156 34.396v144.843l-151.53-82.215z" id="path2356"/></clipPath><clipPath clipPathUnits="userSpaceOnUse" id="clipPath2362"><path d="M1546.88 2249.85h179.53v-277.68h-179.53v277.68z" id="path2364"/></clipPath><clipPath clipPathUnits="userSpaceOnUse" id="clipPath2330"><path d="M1395.455 2079.816a26.76 26.76 0 0 1 13.892-23.462l137.639-75.49v170.627l-151.531 82.215v-153.89z" id="path2332"/></clipPath><clipPath clipPathUnits="userSpaceOnUse" id="clipPath2338"><path d="M1329.02 2304.55h182.99v-182.98h-182.99v182.98z" id="path2340"/></clipPath><clipPath clipPathUnits="userSpaceOnUse" id="clipPath2314"><path d="M1465.51 2070.33h46.39v-28.18h-46.39v28.18z" id="path2316"/></clipPath><clipPath clipPathUnits="userSpaceOnUse" id="clipPath2298"><path d="M1465.51 2085.35h46.39v-28.19h-46.39v28.19z" id="path2300"/></clipPath><clipPath clipPathUnits="userSpaceOnUse" id="clipPath2282"><path d="M1453.76 2286.33h198.04v-147.84h-198.04v147.84z" id="path2284"/></clipPath><clipPath clipPathUnits="userSpaceOnUse" id="clipPath2262"><path d="M1546.99 2233.71h151.53v-252.85h-151.53v252.85z" id="path2264"/></clipPath><clipPath clipPathUnits="userSpaceOnUse" id="clipPath2242"><path d="M1395.46 2233.71h151.53v-252.85h-151.53v252.85z" id="path2244"/></clipPath><clipPath clipPathUnits="userSpaceOnUse" id="clipPath2710"><path d="M1938.205 2269.258c-26.56 0-48.29-21.73-48.29-48.29v-159.084c0-23.831 19.497-43.327 43.328-43.327h219.739c23.831 0 43.328 19.496 43.328 43.327v164.046c0 23.829-19.497 43.328-43.328 43.328h-214.777z" id="path2712"/></clipPath><clipPath clipPathUnits="userSpaceOnUse" id="clipPath2718"><path d="M1796.31 2331.26h261.23v-261.23h-261.23v261.23z" id="path2720"/></clipPath><clipPath clipPathUnits="userSpaceOnUse" id="clipPath2642"><path d="M0 4629.055h3590.051V0H0v4629.055Z" id="path2644"/></clipPath><clipPath clipPathUnits="userSpaceOnUse" id="clipPath2666"><path d="M1922.07 2102.96h157.07v-61.46h-157.07v61.46z" id="path2668"/></clipPath><clipPath clipPathUnits="userSpaceOnUse" id="clipPath2694"><path d="M1896.4 2260.94h37.82v-28.9h-37.82v28.9z" id="path2696"/></clipPath><clipPath clipPathUnits="userSpaceOnUse" id="clipPath2632"><path d="M1938.095 2269.258c-26.498 0-48.18-21.681-48.18-48.18v-137.522c0-35.749 29.25-64.999 65.001-64.999h176.393c35.751 0 65.001 29.25 65.001 64.999v135.636c0 27.535-22.53 50.066-50.065 50.066h-208.15z" id="path2634"/></clipPath><clipPath clipPathUnits="userSpaceOnUse" id="clipPath1938"><path d="m2721.639 2203.975-33.111-33.111-33.111 33.111c-5.89 5.889-15.527 5.889-21.417 0-5.889-5.889-5.889-15.525 0-21.415l33.112-33.112-33.112-33.111c-5.889-5.89-5.889-15.527 0-21.417 5.89-5.888 15.527-5.888 21.417 0l33.111 33.112 33.111-33.112c5.888-5.888 15.526-5.888 21.415 0 5.89 5.89 5.89 15.527 0 21.417l-33.111 33.111 33.111 33.112c5.89 5.89 5.89 15.526 0 21.415-2.945 2.944-6.826 4.417-10.708 4.417-3.881 0-7.763-1.473-10.707-4.417" id="path1940"/></clipPath><clipPath clipPathUnits="userSpaceOnUse" id="clipPath1946"><path d="M2624.66 2213.71h165.42V2045.2h-165.42v168.51z" id="path1948"/></clipPath><clipPath clipPathUnits="userSpaceOnUse" id="clipPath1890"><path d="M0 4629.055h3590.051V0H0v4629.055Z" id="path1892"/></clipPath><clipPath clipPathUnits="userSpaceOnUse" id="clipPath1898"><path d="M2547.62 2248.26h18.57v-12.32h-18.57v12.32z" id="path1900"/></clipPath><clipPath clipPathUnits="userSpaceOnUse" id="clipPath1914"><path d="M2476.04 2241.18h57.62v-83.08h-57.62v83.08z" id="path1916"/></clipPath><clipPath clipPathUnits="userSpaceOnUse" id="clipPath3008"><path d="M3111.19 2200.03h174.88V2079.8h-174.88v120.23z" id="path3010"/></clipPath><clipPath clipPathUnits="userSpaceOnUse" id="clipPath2936"><path d="M3105.497 2298.055c-14.647 0-26.632-11.984-26.632-26.632v-232.809c0-14.647 11.985-26.631 26.632-26.631h188.05c14.647 0 26.631 11.984 26.631 26.631v193.539a20.433 20.433 0 0 1-6.725 15.153l-50.276 45.471a20.426 20.426 0 0 1-13.705 5.278h-143.975z" id="path2938"/></clipPath><clipPath clipPathUnits="userSpaceOnUse" id="clipPath2948"><path d="M3261.93 2250.8h58.25v-50.77h-58.25v50.77z" id="path2950"/></clipPath><clipPath clipPathUnits="userSpaceOnUse" id="clipPath2968"><path d="M3087.81 2289.2h40.75v-31.13h-40.75v31.13z" id="path2970"/></clipPath><clipPath clipPathUnits="userSpaceOnUse" id="clipPath2984"><path d="M3007.72 2370.26h222.72v-222.73h-222.72v222.73z" id="path2986"/></clipPath><clipPath clipPathUnits="userSpaceOnUse" id="clipPath2904"><path d="M0 4629.055h3590.051V0H0v4629.055Z" id="path2906"/></clipPath><clipPath clipPathUnits="userSpaceOnUse" id="clipPath2912"><path d="M3057.99 2177.8h174.87v-120.22h-174.87v120.22z" id="path2914"/></clipPath><clipPath clipPathUnits="userSpaceOnUse" id="clipPath2840"><path d="M3052.292 2275.831c-14.648 0-26.631-11.985-26.631-26.632V2016.39c0-14.648 11.983-26.633 26.631-26.633h188.049c14.648 0 26.632 11.985 26.632 26.633v193.539a20.427 20.427 0 0 1-6.725 15.151l-50.275 45.472a20.427 20.427 0 0 1-13.705 5.279h-143.976z" id="path2842"/></clipPath><clipPath clipPathUnits="userSpaceOnUse" id="clipPath2852"><path d="M3208.72 2228.58h58.25v-50.78h-58.25v50.78z" id="path2854"/></clipPath><clipPath clipPathUnits="userSpaceOnUse" id="clipPath2872"><path d="M3034.61 2266.98h40.75v-31.14h-40.75v31.14z" id="path2874"/></clipPath><clipPath clipPathUnits="userSpaceOnUse" id="clipPath2888"><path d="M2954.51 2348.04h222.73v-222.73h-222.73v222.73z" id="path2890"/></clipPath><clipPath clipPathUnits="userSpaceOnUse" id="clipPath718"><path d="M286.099 1557.33c0-28.902 23.515-52.419 52.419-52.419 28.905 0 52.419 23.517 52.419 52.419 0 28.903-23.514 52.419-52.419 52.419-28.904 0-52.419-23.516-52.419-52.419" id="path720"/></clipPath><clipPath clipPathUnits="userSpaceOnUse" id="clipPath726"><path d="M251.089 1624.29h108.158v-108.16H251.089v108.16z" id="path728"/></clipPath><clipPath clipPathUnits="userSpaceOnUse" id="clipPath694"><path d="M443.357 1604.507c0-28.902 23.514-52.419 52.419-52.419 28.904 0 52.419 23.517 52.419 52.419 0 28.902-23.515 52.419-52.419 52.419-28.905 0-52.419-23.517-52.419-52.419" id="path696"/></clipPath><clipPath clipPathUnits="userSpaceOnUse" id="clipPath702"><path d="M405.067 1669.15h108.158v-108.16H405.067v108.16z" id="path704"/></clipPath><clipPath clipPathUnits="userSpaceOnUse" id="clipPath650"><path d="M0 4629.055h3590.051V0H0v4629.055Z" id="path652"/></clipPath><clipPath clipPathUnits="userSpaceOnUse" id="clipPath674"><path d="M292.916 1601.48h45.827v-45.82h-45.827v45.82z" id="path676"/></clipPath></defs><g id="layer1" transform="matrix(5.09748 0 0 -5.09748 -1242.319 9361.138)"><g id="g646"><g id="g648" clip-path="url('#clipPath650')"><g id="g654" transform="translate(380.518 1546.222)"><path d="M0 0c-5.79 0-10.484 4.694-10.484 10.483v200.569c0 4.514 2.887 8.517 7.17 9.946l157.256 52.419a10.518 10.518 0 0 0 9.445-1.443 10.488 10.488 0 0 0 4.354-8.503V57.661c0-5.79-4.695-10.484-10.484-10.484-5.79 0-10.484 4.694-10.484 10.484v191.266l-136.29-45.432V10.483C10.483 4.694 5.79 0 0 0" style="fill:#323139;fill-opacity:1;fill-rule:nonzero;stroke:none" id="path656"/></g><g id="g658" transform="translate(380.454 1699.612)"><path d="M0 0a5.243 5.243 0 0 0-4.973 3.583 5.239 5.239 0 0 0 3.315 6.63l157.257 52.419a5.232 5.232 0 0 0 6.631-3.313 5.237 5.237 0 0 0-3.314-6.629L1.659.271A5.234 5.234 0 0 0 0 0" style="fill:#323139;fill-opacity:1;fill-rule:nonzero;stroke:none" id="path660"/></g><g id="g662" transform="translate(383.916 1755.303)"><path d="M0 0v-50.734L155.407 4.46l-2.23 41.256L0 0Z" style="fill:#323139;fill-opacity:1;fill-rule:nonzero;stroke:none" id="path664"/></g><g id="g666" transform="translate(338.519 1504.911)"><path d="M0 0c-28.905 0-52.419 23.517-52.419 52.419 0 28.902 23.514 52.419 52.419 52.419 28.905 0 52.419-23.517 52.419-52.419C52.419 23.517 28.905 0 0 0" style="fill:#323139;fill-opacity:1;fill-rule:nonzero;stroke:none" id="path668"/></g><g id="g670"><g id="g678"><g clip-path="url('#clipPath674')" id="g680" style="opacity:.369995"><g transform="translate(300.516 1555.657)" id="g682"><path d="M0 0a7.598 7.598 0 0 0-7.6 7.599c0 21.077 17.148 38.227 38.228 38.227 4.196 0 7.6-3.399 7.6-7.598 0-4.202-3.404-7.6-7.6-7.6-12.698 0-23.029-10.331-23.029-23.029C7.599 3.399 4.197 0 0 0" style="fill:#fff;fill-opacity:1;fill-rule:nonzero;stroke:none" id="path684"/></g></g></g></g><g id="g686" transform="translate(495.776 1552.088)"><path d="M0 0c-28.905 0-52.419 23.518-52.419 52.419 0 28.902 23.514 52.419 52.419 52.419 28.905 0 52.419-23.517 52.419-52.419C52.419 23.518 28.905 0 0 0" style="fill:#323139;fill-opacity:1;fill-rule:nonzero;stroke:none" id="path688"/></g></g></g><g id="g690"><g id="g692" clip-path="url('#clipPath694')"><g id="g698"><g id="g706"><g clip-path="url('#clipPath702')" id="g708" style="opacity:.0500031"><g transform="translate(513.225 1615.07)" id="g710"><path d="M0 0c0-29.867-24.212-54.079-54.079-54.079S-108.158-29.867-108.158 0c0 29.866 24.212 54.078 54.079 54.078S0 29.866 0 0" style="fill:#fff;fill-opacity:1;fill-rule:nonzero;stroke:none" id="path712"/></g></g></g></g></g></g><g id="g714"><g id="g716" clip-path="url('#clipPath718')"><g id="g722"><g id="g730"><g clip-path="url('#clipPath726')" id="g732" style="opacity:.0500031"><g transform="translate(359.247 1570.207)" id="g734"><path d="M0 0c0-29.866-24.212-54.078-54.079-54.078S-108.158-29.866-108.158 0c0 29.867 24.212 54.079 54.079 54.079S0 29.867 0 0" style="fill:#fff;fill-opacity:1;fill-rule:nonzero;stroke:none" id="path736"/></g></g></g></g></g></g></g></svg>