<svg aria-hidden="true" style="position: absolute; width: 0; height: 0; overflow: hidden;" version="1.1" xmlns="http://www.w3.org/2000/svg" xmlns:xlink="http://www.w3.org/1999/xlink">
<defs>
<symbol id="icon-logobmc" viewBox="0 0 32 32">
<path fill="#000000" stroke="#none" d="M15.258 6.797c-0.019 0.032-0.077 0.045-0.128 0.026-0.109-0.045-0.294 0.019-0.25 0.090 0.019 0.026-0.026 0.122-0.096 0.211s-0.128 0.205-0.128 0.262c0 0.058-0.102 0.166-0.23 0.243l-0.23 0.134 0.173 0.096 0.173 0.090-0.147 0.077c-0.192 0.090-0.243 0.294-0.077 0.294 0.096 0.006 0.083 0.032-0.058 0.134-0.218 0.16-0.224 0.237-0.032 0.307 0.147 0.058 0.147 0.064-0.179 0.166-0.083 0.026-0.090 0.058-0.032 0.16 0.038 0.070 0.096 0.115 0.134 0.096 0.032-0.026 0.058 0.019 0.058 0.083 0 0.083-0.038 0.122-0.109 0.115-0.16-0.013-0.192 0.262-0.038 0.301 0.096 0.019 0.083 0.038-0.058 0.096-0.205 0.083-0.23 0.173-0.077 0.256 0.122 0.064 0.070 0.205-0.077 0.205-0.122 0-0.115 0.23 0.013 0.282s0.058 0.166-0.102 0.166c-0.090 0-0.115 0.032-0.083 0.109 0.026 0.064 0.070 0.134 0.096 0.154 0.032 0.019 0.019 0.134-0.038 0.256-0.051 0.122-0.096 0.179-0.096 0.134-0.006-0.038-0.032-0.077-0.070-0.077-0.032 0-0.064 0.122-0.064 0.275 0 0.224 0.038 0.314 0.192 0.461 0.109 0.102 0.192 0.16 0.192 0.128 0-0.026 0.051-0.006 0.115 0.045 0.186 0.16 0.614 0.403 0.563 0.32-0.026-0.045 0.058-0.019 0.186 0.058 0.154 0.090 0.218 0.173 0.198 0.243-0.019 0.058-0.051 0.237-0.077 0.403-0.019 0.173-0.064 0.307-0.096 0.307-0.109 0-0.058 0.25 0.070 0.339 0.205 0.141 0.32 0.435 0.32 0.832v0.371l-0.89-0.045c-0.602-0.032-1.018-0.019-1.299 0.032-1.082 0.205-1.696 0.928-2.579 3.046-0.102 0.243-0.115 0.25-0.173 0.115-0.077-0.16-0.384-0.307-0.531-0.25-0.211 0.077 0 0.557 0.288 0.646 0.077 0.026 0.128 0.102 0.134 0.179 0 0.077 0.019 0.102 0.038 0.058 0.051-0.128 0.147-0.090 0.147 0.064 0.006 0.173 0.275 0.499 0.416 0.499 0.051 0 0.096 0.032 0.096 0.077 0 0.058 0.019 0.058 0.077 0 0.109-0.109 0.243-0.096 0.243 0.032 0 0.058 0.083-0.006 0.198-0.166 0.186-0.256 0.205-0.269 0.333-0.179 0.077 0.051 0.154 0.147 0.166 0.211 0.019 0.102 0.006 0.109-0.083 0.032-0.141-0.122-0.218-0.032-0.090 0.102 0.058 0.051 0.154 0.083 0.205 0.064 0.166-0.064 0.115-0.288-0.090-0.442-0.102-0.077-0.192-0.16-0.192-0.186 0-0.096 0.762-1.024 0.998-1.216 0.493-0.397 0.877-0.525 1.658-0.557 0.39-0.013 0.8 0 0.915 0.032 0.288 0.070 1.446-0.019 1.792-0.147 0.486-0.179 0.794-0.57 1.408-1.798 0.608-1.242 0.922-1.658 1.427-1.914 0.384-0.192 0.448-0.192 0.634 0.006 0.083 0.090 0.166 0.147 0.179 0.128 0.019-0.019-0.032-0.102-0.115-0.192-0.115-0.122-0.128-0.166-0.058-0.186 0.237-0.077 0.794-0.166 1.325-0.205 0.326-0.026 0.589-0.070 0.589-0.102s-0.16-0.038-0.378-0.013l-0.371 0.038-0.077-0.205c-0.115-0.339-0.096-0.358 0.365-0.429l0.429-0.070-0.474 0.006c-0.474 0.013-0.48 0.013-0.557-0.179-0.141-0.326-0.122-0.339 0.422-0.39 0.282-0.019 0.512-0.070 0.512-0.096 0-0.064-0.141-0.064-0.659 0-0.39 0.045-0.442 0.026-0.518-0.23-0.038-0.128-0.013-0.141 0.442-0.218 0.454-0.070 0.71-0.186 0.422-0.186-0.192 0-0.179-0.275 0.013-0.371s0.070-0.096-0.704-0.006c-1.242 0.134-2.189 0.461-2.707 0.928-0.25 0.23-0.256 0.23-0.403 0.109-0.077-0.064-0.134-0.166-0.122-0.23 0.013-0.058-0.026-0.128-0.077-0.147-0.058-0.019-0.102-0.077-0.102-0.128s0.038-0.070 0.096-0.051c0.166 0.070 0.237-0.038 0.134-0.205-0.134-0.192-0.128-0.218 0.026-0.218s0.166-0.141 0.032-0.256c-0.134-0.115-0.122-0.186 0.032-0.147 0.096 0.026 0.128 0 0.128-0.096 0-0.077-0.026-0.154-0.064-0.173-0.096-0.058-0.077-0.16 0.026-0.122 0.128 0.045 0.179-0.147 0.070-0.256-0.134-0.134-0.115-0.224 0.032-0.186 0.154 0.038 0.179-0.115 0.032-0.237-0.134-0.115-0.122-0.211 0.032-0.173s0.179-0.154 0.032-0.275c-0.051-0.045-0.096-0.154-0.096-0.25-0.006-0.090-0.096-0.326-0.211-0.518-0.173-0.282-0.288-0.39-0.595-0.557-0.211-0.115-0.512-0.224-0.672-0.243l-0.282-0.038 0.211 0.096c0.269 0.128 0.845 0.717 0.845 0.87 0 0.064 0.032 0.141 0.064 0.16 0.038 0.019 0.064 0.096 0.064 0.166s-0.026 0.115-0.058 0.096c-0.077-0.051-0.134 0.115-0.134 0.365-0.006 0.115-0.045 0.384-0.090 0.602-0.045 0.224-0.064 0.384-0.032 0.365 0.064-0.038 0.026 0.198-0.141 0.883-0.141 0.557-0.173 1.114-0.070 1.216 0.045 0.045 0.109 0.038 0.198-0.006 0.090-0.051 0.173-0.058 0.25-0.013 0.301 0.16 0.294 0.198-0.243 1.306-0.55 1.12-0.87 1.562-1.286 1.773-0.134 0.070-0.262 0.128-0.282 0.128s-0.032-0.096-0.032-0.211c0-0.115-0.038-0.25-0.077-0.294-0.070-0.070-0.058-0.070 0.058-0.013 0.154 0.077 0.467 0.096 0.467 0.019 0-0.026-0.096-0.090-0.211-0.141-0.109-0.051-0.218-0.154-0.23-0.224-0.019-0.109-0.006-0.115 0.083-0.038 0.141 0.115 0.128 0.032-0.032-0.23-0.134-0.218-0.134-0.224-0.026-0.627l0.109-0.41 0.39 0.038c0.282 0.032 0.371 0.019 0.339-0.032-0.026-0.045-0.083-0.077-0.134-0.077-0.045 0-0.096-0.038-0.115-0.090s-0.192-0.134-0.384-0.192c-0.192-0.058-0.41-0.154-0.486-0.211-0.154-0.122-0.282-0.557-0.224-0.742 0.051-0.16-0.269-0.147-0.358 0.013-0.096 0.186-0.077 0.493 0.038 0.614 0.134 0.134 0.704 0.422 0.954 0.486l0.192 0.045-0.224 0.006c-0.122 0-0.307-0.038-0.416-0.096-0.102-0.058-0.243-0.115-0.314-0.128-0.179-0.032-0.326-0.192-0.339-0.352-0.006-0.083-0.045-0.224-0.090-0.326-0.051-0.128-0.051-0.205-0.006-0.262 0.038-0.045 0.045-0.115 0.013-0.166-0.077-0.128-0.006-0.262 0.134-0.262 0.122 0 0.237 0.026 1.165 0.256 0.512 0.128 0.653 0.122 0.71-0.038 0.038-0.102-0.474-0.275-1.35-0.442-0.326-0.064-0.595-0.141-0.595-0.179 0-0.090 0.742-0.006 1.229 0.147 0.57 0.166 0.781 0.186 0.806 0.051s-0.435-0.307-1.344-0.499c-0.378-0.077-0.672-0.173-0.653-0.198 0.019-0.032 0.064-0.038 0.109-0.013 0.038 0.019 0.192 0.038 0.346 0.026 0.16-0.006 0.518 0.058 0.813 0.154 0.621 0.186 0.87 0.205 0.87 0.058 0-0.115-0.25-0.224-0.896-0.384-0.262-0.064-0.493-0.134-0.512-0.154s-0.096-0.032-0.173-0.032c-0.083 0-0.147-0.032-0.147-0.064 0.006-0.102 0.55-0.038 1.043 0.134 0.57 0.192 0.749 0.198 0.749 0.026 0-0.096-0.102-0.154-0.493-0.275-0.275-0.090-0.666-0.192-0.864-0.237-0.442-0.090-0.506-0.224-0.090-0.179 0.154 0.019 0.544 0.115 0.87 0.211 0.493 0.154 0.595 0.166 0.64 0.090 0.038-0.058 0.032-0.115-0.019-0.166-0.077-0.077-1.331-0.48-1.427-0.461-0.122 0.019-0.218-0.006-0.218-0.070 0-0.122 0.435-0.064 1.075 0.154 0.358 0.122 0.659 0.198 0.678 0.179 0.026-0.019 0.038-0.083 0.038-0.147 0-0.122-0.608-0.371-1.248-0.506-0.486-0.109-0.589-0.192-0.218-0.192 0.154 0 0.557 0.096 0.896 0.218l0.621 0.211v-0.147c0-0.077-0.051-0.166-0.109-0.186-0.467-0.192-1.19-0.416-1.35-0.416-0.128 0-0.192-0.032-0.192-0.096 0-0.134 0.378-0.070 1.069 0.166 0.608 0.218 0.742 0.23 0.71 0.070-0.026-0.134-0.902-0.506-1.35-0.563-0.173-0.026-0.326-0.077-0.339-0.115s0.013-0.218 0.058-0.403l0.090-0.333-0.314 0.006c-0.166 0-0.326 0.026-0.346 0.064zM21.626 10.586c0.096 0.115 0.019 0.294-0.128 0.294-0.141 0-0.218-0.141-0.16-0.288 0.045-0.122 0.192-0.122 0.288-0.006zM21.184 10.65c0 0.051 0.019 0.134 0.038 0.192 0.032 0.077 0 0.102-0.122 0.102-0.154 0-0.237-0.102-0.237-0.294 0-0.051 0.064-0.090 0.16-0.090s0.16 0.038 0.16 0.090zM20.762 10.726c0.109 0.275-0.070 0.39-0.416 0.262-0.179-0.070-0.211-0.064-0.333 0.090-0.077 0.096-0.301 0.25-0.493 0.346s-0.518 0.32-0.723 0.493c-0.358 0.314-0.371 0.32-0.525 0.218-0.090-0.058-0.16-0.141-0.16-0.179 0-0.147 0.685-0.736 1.062-0.915 0.371-0.179 1.139-0.403 1.408-0.41 0.077-0.006 0.16 0.038 0.179 0.096zM20.25 11.136c-0.064 0.026-0.134 0.038-0.154 0.019-0.051-0.045 0.154-0.141 0.218-0.102 0.032 0.026 0.006 0.064-0.064 0.083zM20.954 11.302c0.026 0.096 0.032 0.186 0.013 0.198-0.051 0.051-0.576 0.141-0.627 0.109-0.026-0.013 0.019-0.128 0.096-0.25 0.179-0.282 0.454-0.314 0.518-0.058zM20.403 11.277c-0.032 0.102-0.307 0.154-0.307 0.058 0-0.051 0.109-0.102 0.275-0.128 0.032 0 0.045 0.032 0.032 0.070zM17.824 11.392c0.019 0.032-0.006 0.064-0.058 0.064-0.058 0-0.102-0.032-0.102-0.064 0-0.038 0.026-0.064 0.058-0.064 0.038 0 0.083 0.026 0.102 0.064zM20.128 11.533c0.096 0.141 0.090 0.147-0.141 0.224-0.25 0.090-0.301 0.070-0.365-0.154-0.032-0.102-0.013-0.147 0.070-0.166 0.237-0.064 0.333-0.038 0.435 0.096zM19.584 11.808c0 0.134-0.205 0.173-0.314 0.064-0.096-0.096-0.090-0.115 0.019-0.192 0.134-0.102 0.294-0.026 0.294 0.128zM21.152 11.853c0.102 0.243 0.077 0.275-0.205 0.339-0.173 0.032-0.218 0.013-0.365-0.179-0.205-0.262-0.205-0.282-0.019-0.32 0.397-0.077 0.499-0.051 0.589 0.16zM20.448 12c0.070 0.122 0.109 0.23 0.096 0.243-0.019 0.006-0.198 0.070-0.41 0.134l-0.378 0.115-0.16-0.166c-0.198-0.192-0.166-0.237 0.275-0.416 0.429-0.173 0.442-0.166 0.576 0.090zM19.162 11.942c0.064 0.166 0.045 0.205-0.186 0.384-0.186 0.141-0.243 0.154-0.32 0.090-0.090-0.077-0.070-0.115 0.141-0.333 0.262-0.269 0.307-0.288 0.365-0.141zM13.85 12.006c0.032 0.090 0.026 0.096-0.058 0.026-0.109-0.090-0.122-0.128-0.038-0.128 0.032 0 0.077 0.045 0.096 0.102zM14.214 12.173c0.070 0.134 0.070 0.141-0.026 0.058-0.064-0.045-0.109-0.109-0.109-0.141 0-0.096 0.058-0.064 0.134 0.083zM18.291 12.301c0.051 0.070 0.032 0.147-0.083 0.346-0.083 0.134-0.16 0.211-0.16 0.166 0-0.038-0.058-0.134-0.128-0.205-0.122-0.122-0.122-0.141-0.032-0.32 0.083-0.16 0.122-0.186 0.218-0.134 0.064 0.038 0.147 0.102 0.186 0.147zM19.469 12.333c0.154 0.134 0.147 0.198-0.026 0.346-0.186 0.147-0.294 0.154-0.448 0.013-0.115-0.102-0.115-0.109 0.058-0.288 0.198-0.205 0.256-0.218 0.416-0.070zM21.363 12.512c0.045 0.134 0.070 0.256 0.058 0.269s-0.294 0.070-0.621 0.128l-0.595 0.109-0.147-0.192c-0.083-0.102-0.154-0.205-0.154-0.224s0.16-0.083 0.358-0.147c0.358-0.115 0.358-0.115 0.512 0.032 0.083 0.077 0.154 0.109 0.154 0.070s-0.026-0.090-0.064-0.109c-0.115-0.070-0.064-0.154 0.115-0.179 0.269-0.038 0.294-0.019 0.384 0.243zM18.56 12.787c-0.256 0.448-0.307 0.499-0.416 0.39-0.083-0.083-0.070-0.134 0.109-0.422 0.173-0.282 0.224-0.32 0.32-0.269 0.115 0.064 0.115 0.070-0.013 0.301zM19.040 12.864c0.038 0.064-0.339 0.634-0.422 0.64-0.019 0-0.083-0.051-0.141-0.115-0.096-0.102-0.090-0.134 0.090-0.416 0.16-0.262 0.205-0.294 0.314-0.237 0.064 0.032 0.141 0.096 0.16 0.128zM19.936 12.864c0.102 0.102 0.173 0.198 0.154 0.211-0.013 0.006-0.134 0.064-0.262 0.122-0.128 0.064-0.352 0.218-0.499 0.346-0.25 0.224-0.262 0.23-0.416 0.128-0.090-0.058-0.16-0.115-0.16-0.122 0-0.154 0.768-0.87 0.934-0.877 0.032 0 0.147 0.083 0.25 0.192zM17.792 13.12c0.077 0 0.083 0.173 0.006 0.218-0.032 0.019-0.122-0.013-0.198-0.077-0.128-0.102-0.134-0.134-0.064-0.269l0.083-0.154 0.051 0.141c0.032 0.077 0.083 0.141 0.122 0.141zM18.074 13.286c0.102 0.038 0.141 0.224 0.058 0.301-0.064 0.070-0.211-0.083-0.211-0.218s0.006-0.141 0.154-0.083zM17.626 13.459c0.045 0.070 0.038 0.166-0.045 0.333-0.090 0.192-0.134 0.224-0.256 0.186-0.211-0.064-0.211-0.070-0.058-0.384 0.147-0.294 0.237-0.326 0.358-0.134zM15.296 13.504c0 0.032 0.045 0.045 0.096 0.026 0.109-0.045 0.134 0.134 0.032 0.198-0.077 0.045-0.032 0.282 0.102 0.614 0.122 0.275 0.096 0.659-0.038 0.685-0.058 0.006-0.102-0.038-0.109-0.128-0.006-0.083-0.026-0.32-0.038-0.531-0.032-0.429-0.090-0.614-0.211-0.691-0.045-0.026-0.070-0.090-0.051-0.141 0.045-0.109 0.218-0.134 0.218-0.032zM18.56 13.606c0 0.019-0.032 0.090-0.070 0.16-0.051 0.102-0.083 0.115-0.16 0.051-0.090-0.077-0.122-0.262-0.051-0.333 0.045-0.045 0.282 0.064 0.282 0.122zM18.035 13.734c0.038 0.026-0.518 1.178-0.563 1.178-0.026 0-0.083-0.083-0.128-0.186-0.070-0.166-0.051-0.23 0.192-0.672 0.237-0.429 0.282-0.48 0.378-0.41 0.058 0.045 0.109 0.083 0.122 0.090zM18.886 13.76c0.102 0.058 0.109 0.090 0.038 0.192-0.128 0.218-0.41 0.115-0.333-0.122 0.045-0.147 0.109-0.166 0.294-0.070zM18.298 13.914c0.115 0.134-0.486 1.414-0.608 1.312-0.051-0.038-0.090-0.122-0.090-0.179 0-0.128 0.518-1.222 0.576-1.222 0.026 0 0.083 0.038 0.122 0.090zM17.318 14.112c0.051 0.128-0.083 0.288-0.205 0.243-0.090-0.032-0.122-0.218-0.045-0.294 0.070-0.077 0.211-0.045 0.25 0.051zM15.763 14.208c0.019 0.070 0.019 0.128 0.006 0.128s-0.051-0.058-0.090-0.128c-0.038-0.070-0.045-0.128-0.013-0.128 0.038 0 0.077 0.058 0.096 0.128zM18.586 14.118c0.154 0.058 0.134 0.134-0.224 0.883-0.269 0.576-0.339 0.678-0.416 0.614-0.051-0.045-0.090-0.115-0.090-0.154 0-0.064 0.582-1.382 0.614-1.382 0.006 0 0.058 0.019 0.115 0.038zM17.088 14.56c0 0.032-0.109 0.192-0.243 0.352l-0.25 0.282-0.096-0.186c-0.090-0.186-0.090-0.198 0.16-0.461 0.237-0.243 0.269-0.262 0.339-0.16 0.051 0.058 0.083 0.134 0.090 0.173zM17.325 15.187c-0.179 0.275-0.55 0.608-0.749 0.672-0.179 0.064-0.205 0.058-0.256-0.090-0.102-0.256-0.077-0.314 0.154-0.422 0.115-0.058 0.326-0.237 0.461-0.39l0.25-0.288 0.122 0.186c0.102 0.166 0.109 0.205 0.019 0.333zM16.038 15.194c0.045 0.186-0.006 0.294-0.141 0.294-0.058 0-0.090-0.070-0.090-0.224 0-0.262 0.166-0.314 0.23-0.070zM14.022 15.27c0.032 0.096 0.045 0.186 0.026 0.205s-0.218 0.045-0.442 0.064l-0.41 0.026-0.051-0.461h0.403c0.378 0 0.41 0.013 0.474 0.166zM14.758 15.309c-0.019 0.179-0.051 0.211-0.205 0.23-0.218 0.019-0.378-0.090-0.442-0.294-0.038-0.134-0.026-0.141 0.314-0.141h0.358l-0.026 0.205zM15.635 15.277c0.032 0.179-0.038 0.275-0.198 0.275-0.051 0-0.064-0.051-0.038-0.179 0.083-0.326 0.186-0.371 0.237-0.096zM13.082 15.264c0.051 0.141-0.026 0.288-0.154 0.288-0.064 0-0.128-0.045-0.154-0.096-0.051-0.141 0.026-0.288 0.154-0.288 0.064 0 0.128 0.045 0.154 0.096zM17.664 15.405c0 0.154-0.384 0.64-0.634 0.813-0.371 0.25-0.506 0.269-0.582 0.070-0.032-0.090-0.064-0.179-0.064-0.198 0-0.013 0.128-0.090 0.294-0.16 0.16-0.077 0.403-0.275 0.55-0.448 0.205-0.243 0.282-0.294 0.352-0.243 0.045 0.038 0.083 0.115 0.083 0.166zM12.698 15.437c0.019 0.109 0.032 0.205 0.026 0.211-0.013 0.006-0.154 0.083-0.314 0.179l-0.294 0.166-0.077-0.16c-0.096-0.211-0.102-0.192 0.198-0.41 0.333-0.243 0.41-0.243 0.461 0.013zM16.186 15.725c0.045 0.090 0.051 0.186 0.026 0.218-0.026 0.026-0.288 0.064-0.576 0.083-0.48 0.038-0.531 0.032-0.595-0.083-0.032-0.070-0.064-0.166-0.064-0.224 0-0.115 0.237-0.109 0.288 0.013 0.026 0.070 0.051 0.070 0.134-0.013 0.141-0.147 0.282-0.128 0.288 0.038 0.006 0.134 0.013 0.134 0.038 0.019 0.070-0.269 0.346-0.301 0.461-0.051zM17.92 15.802c0 0.147-0.32 0.634-0.563 0.864-0.109 0.102-0.352 0.237-0.538 0.301-0.352 0.115-0.448 0.109-0.32-0.019 0.045-0.045 0.077-0.147 0.077-0.243 0.006-0.128 0.070-0.192 0.339-0.32 0.23-0.109 0.41-0.262 0.582-0.499 0.198-0.262 0.269-0.32 0.333-0.262 0.051 0.038 0.090 0.122 0.090 0.179zM14.195 15.693c0.045 0.045 0.077 0.128 0.077 0.186 0 0.090-0.083 0.115-0.493 0.134-0.467 0.026-0.506 0.019-0.653-0.134l-0.16-0.166 0.288-0.038c0.499-0.070 0.864-0.058 0.941 0.019zM14.861 15.763c0.026 0.045 0.051 0.128 0.051 0.198 0 0.102-0.032 0.115-0.205 0.077-0.218-0.038-0.371-0.186-0.371-0.346 0-0.070 0.051-0.083 0.237-0.045 0.134 0.026 0.262 0.077 0.288 0.115zM13.024 15.872c0.141 0.16 0.109 0.192-0.307 0.339-0.512 0.179-0.518 0.179-0.621 0.115-0.077-0.051-0.077-0.083 0.026-0.192 0.122-0.134 0.595-0.39 0.717-0.39 0.038 0 0.122 0.058 0.186 0.128zM11.77 16.288c0 0.032-0.083 0.166-0.186 0.288-0.166 0.198-0.198 0.211-0.282 0.128-0.090-0.083-0.077-0.128 0.096-0.41 0.179-0.288 0.198-0.301 0.282-0.192 0.051 0.070 0.090 0.147 0.090 0.186zM16.326 16.23c0.032 0.096 0.045 0.186 0.026 0.211-0.064 0.058-0.954 0.083-1.030 0.026-0.038-0.026-0.090-0.115-0.115-0.192-0.045-0.134-0.026-0.141 0.454-0.166 0.275-0.006 0.518-0.026 0.55-0.032 0.026-0.006 0.077 0.064 0.115 0.154zM13.408 16.365c0.058 0.083 0.096 0.166 0.083 0.173s-0.147 0.045-0.307 0.090c-0.16 0.045-0.333 0.096-0.384 0.115-0.096 0.032-0.48-0.218-0.422-0.275 0.077-0.083 0.774-0.326 0.845-0.294 0.045 0.013 0.128 0.102 0.186 0.192zM14.464 16.25c0.122 0.23 0.077 0.262-0.333 0.262-0.429 0-0.461-0.013-0.653-0.243l-0.122-0.141h0.518c0.448 0 0.531 0.019 0.589 0.122zM15.021 16.205c0.038 0.045 0.083 0.134 0.102 0.192 0.032 0.096 0 0.115-0.205 0.115-0.198 0-0.256-0.032-0.314-0.16-0.045-0.090-0.077-0.179-0.077-0.192 0-0.070 0.435-0.026 0.493 0.045zM12.096 16.506c-0.006 0.141-0.621 0.794-0.704 0.742-0.109-0.070-0.070-0.16 0.224-0.544 0.192-0.25 0.326-0.365 0.384-0.346 0.051 0.026 0.096 0.090 0.096 0.147zM12.442 16.71l0.173 0.134-0.365 0.346c-0.378 0.365-0.474 0.403-0.602 0.25-0.058-0.070-0.058-0.115 0.013-0.211 0.141-0.205 0.531-0.64 0.57-0.646 0.026-0.006 0.115 0.051 0.211 0.128zM14.694 16.8c0.045 0.122 0.090 0.23 0.090 0.237 0 0.013-0.262 0.032-0.589 0.038-0.717 0.026-1.152 0.166-1.626 0.531-0.339 0.256-0.352 0.262-0.474 0.154-0.115-0.109-0.122-0.122-0.013-0.25 0.058-0.077 0.218-0.243 0.358-0.358l0.243-0.218 0.25 0.141c0.288 0.166 0.333 0.128 0.083-0.070l-0.166-0.128 0.16-0.083c0.083-0.045 0.275-0.102 0.416-0.128 0.23-0.038 0.269-0.019 0.365 0.128 0.064 0.090 0.141 0.166 0.173 0.166 0.038 0 0.019-0.070-0.038-0.16-0.058-0.083-0.102-0.173-0.102-0.192s0.173-0.032 0.39-0.032c0.378 0 0.384 0.006 0.48 0.224zM15.232 16.762c0 0.070 0.019 0.166 0.038 0.224 0.064 0.166-0.269 0.128-0.384-0.038-0.16-0.224-0.128-0.307 0.122-0.307 0.179 0 0.224 0.026 0.224 0.122zM10.816 17.92c-0.192 0.384-0.371 0.704-0.397 0.704-0.128 0-0.096-0.166 0.134-0.685 0.429-0.973 0.397-0.934 0.512-0.819 0.090 0.083 0.064 0.166-0.25 0.8zM11.392 17.389c0 0.102-0.608 1.363-0.659 1.363-0.141 0-0.090-0.25 0.166-0.794 0.186-0.39 0.326-0.614 0.39-0.614 0.058 0 0.102 0.019 0.102 0.045zM11.706 17.626c0.064 0.070 0.019 0.179-0.211 0.538-0.275 0.429-0.486 0.621-0.486 0.429 0-0.051 0.096-0.307 0.218-0.57 0.224-0.48 0.333-0.576 0.48-0.397zM12.096 17.882c0.058 0.077 0.013 0.173-0.243 0.512-0.237 0.301-0.339 0.39-0.39 0.339-0.102-0.102-0.090-0.154 0.16-0.563 0.23-0.384 0.333-0.448 0.474-0.288zM10.016 18.214c0.307 0.333 0.154 0.474-0.166 0.16-0.102-0.102-0.186-0.218-0.186-0.256 0-0.128 0.198-0.070 0.352 0.096zM10.714 18.867c0.051 0.083-0.070 0.224-0.147 0.179-0.102-0.064-0.090-0.23 0.019-0.23 0.051 0 0.109 0.026 0.128 0.051zM11.392 18.88c0 0.032-0.013 0.064-0.026 0.064-0.019 0-0.051-0.032-0.070-0.064-0.019-0.038-0.006-0.064 0.026-0.064 0.038 0 0.070 0.026 0.070 0.064zM10.989 19.085c-0.019 0.045-0.032 0.013-0.032-0.077s0.013-0.122 0.032-0.083c0.013 0.045 0.013 0.122 0 0.16zM11.392 19.059c0 0.032-0.058 0.109-0.122 0.166-0.154 0.141-0.518 0.083-0.518-0.070 0-0.090 0.013-0.090 0.115 0 0.154 0.141 0.186 0.134 0.224-0.019 0.032-0.122 0.301-0.192 0.301-0.077z"></path>
<path fill="#000000" stroke="#none" d="M15.718 16.288c-0.019 0.051-0.006 0.096 0.026 0.096 0.038 0 0.064-0.045 0.064-0.096s-0.013-0.096-0.026-0.096c-0.013 0-0.038 0.045-0.064 0.096z"></path>
<path fill="#000000" stroke="#none" d="M15.296 16.314c0 0.038 0.026 0.083 0.064 0.102s0.045-0.006 0.026-0.058c-0.045-0.115-0.090-0.134-0.090-0.045z"></path>
<path fill="#000000" stroke="#none" d="M16.192 6.79c0 0.032-0.032 0.045-0.077 0.019s-0.051-0.019-0.026 0.026c0.026 0.038-0.013 0.109-0.090 0.154-0.141 0.090-0.173 0.237-0.045 0.25 0.179 0.019 0.275-0.026 0.384-0.173 0.096-0.122 0.179-0.154 0.416-0.16l0.301-0.006-0.256-0.083c-0.314-0.109-0.608-0.122-0.608-0.026z"></path>
<path fill="#000000" stroke="#none"d="M14.566 7.078c-0.070 0.179-0.038 0.25 0.058 0.128 0.051-0.070 0.096-0.147 0.096-0.179 0-0.090-0.115-0.058-0.154 0.051z"></path>
<path fill="#000000" stroke="#none" d="M17.286 9.958c0 0.070 0.019 0.090 0.038 0.038 0.019-0.045 0.013-0.102-0.006-0.122-0.019-0.026-0.038 0.013-0.032 0.083z"></path>
<path fill="#000000" stroke="#none" d="M17.158 10.534c0 0.070 0.019 0.090 0.038 0.038 0.019-0.045 0.013-0.102-0.006-0.122-0.019-0.026-0.038 0.013-0.032 0.083z"></path>
<path fill="#000000" stroke="#none" d="M15.891 13.421c-0.019 0.064-0.051 0.141-0.070 0.179-0.019 0.032 0.019 0.019 0.090-0.038 0.218-0.179 0.262-0.192 0.237-0.038-0.115 0.659-0.083 0.813 0.186 0.813 0.186 0 0.218-0.192 0.064-0.454-0.077-0.134-0.141-0.294-0.141-0.352 0-0.090 0.038-0.077 0.192 0.070 0.218 0.211 0.23 0.198 0.090-0.083-0.083-0.179-0.134-0.205-0.352-0.205-0.186 0-0.262 0.032-0.294 0.109z"></path>
<path fill="#000000" stroke="#none" d="M16.992 17.152c-0.102 0.026-0.294 0.096-0.416 0.166l-0.224 0.122 0.186 0.019c0.294 0.038 0.608-0.045 0.678-0.179 0.083-0.147 0.019-0.186-0.224-0.128z"></path>
<path fill="#000000" stroke="#none" d="M16.064 17.536c-0.077 0.051-0.070 0.064 0.045 0.064 0.077 0 0.16-0.032 0.179-0.064 0.051-0.083-0.096-0.083-0.224 0z"></path>
<path fill="#000000" stroke="#none" d="M15.526 17.594c0.032 0.026 0.134 0.070 0.237 0.096 0.128 0.032 0.173 0.019 0.173-0.058 0-0.070-0.070-0.096-0.237-0.096-0.141 0-0.211 0.026-0.173 0.058z"></path>
<path fill="#000000" stroke="#none" d="M6.573 20.781c-0.026 0.019-0.045 0.538-0.045 1.152v1.107l0.211 0.006c0.333 0.013 0.454-0.013 0.57-0.115 0.154-0.141 0.211-0.506 0.128-0.819-0.038-0.141-0.045-0.371-0.019-0.512 0.096-0.557-0.090-0.864-0.525-0.864-0.154 0-0.301 0.019-0.32 0.045zM7.066 21.030c0.128 0.051 0.198 0.422 0.109 0.595-0.045 0.077-0.128 0.134-0.192 0.134-0.096 0-0.122-0.064-0.154-0.339-0.038-0.429-0.006-0.486 0.237-0.39zM7.194 22.182c0.122 0.314 0.013 0.602-0.224 0.602-0.179 0-0.186-0.006-0.186-0.352s0.006-0.352 0.186-0.352c0.109 0 0.198 0.038 0.224 0.102z"></path>
<path fill="#000000" stroke="#none" d="M9.37 20.8c-0.141 0.051-0.346 0.416-0.346 0.608 0 0.166 0.115 0.346 0.429 0.64 0.23 0.224 0.282 0.314 0.262 0.461-0.026 0.218-0.256 0.282-0.442 0.109-0.115-0.102-0.134-0.102-0.23-0.013-0.090 0.096-0.083 0.115 0.064 0.269 0.288 0.288 0.742 0.205 0.87-0.154 0.109-0.314 0.019-0.557-0.32-0.883-0.326-0.314-0.39-0.506-0.211-0.678 0.090-0.090 0.115-0.090 0.282-0.006 0.16 0.083 0.186 0.083 0.224-0.019 0.026-0.070-0.013-0.154-0.128-0.25-0.179-0.16-0.243-0.166-0.454-0.083z"></path>
<path fill="#000000" stroke="#none" d="M11.002 20.922c-0.147 0.154-0.186 0.243-0.186 0.467 0 0.256 0.032 0.307 0.32 0.582 0.237 0.224 0.32 0.352 0.32 0.48 0 0.32-0.192 0.384-0.461 0.16-0.115-0.102-0.243-0.064-0.243 0.077 0 0.166 0.269 0.352 0.512 0.352 0.282 0 0.442-0.147 0.486-0.461 0.051-0.288-0.090-0.557-0.422-0.819-0.275-0.218-0.32-0.397-0.154-0.582 0.096-0.109 0.122-0.109 0.288-0.026 0.166 0.090 0.186 0.090 0.25-0.032 0.058-0.109 0.038-0.147-0.141-0.256-0.282-0.166-0.346-0.16-0.57 0.058z"></path>
<path fill="#000000" stroke="#none" d="M12.563 20.781c-0.064 0.026-0.083 0.314-0.083 1.146 0 1.069 0.006 1.114 0.128 1.114s0.128-0.045 0.134-0.691c0-0.563 0.013-0.653 0.070-0.493 0.038 0.102 0.109 0.294 0.16 0.416l0.096 0.224 0.294-0.832 0.006 0.685c0.006 0.678 0.006 0.691 0.154 0.691s0.147-0.006 0.134-0.755c-0.013-0.41-0.019-0.915-0.026-1.12 0-0.314-0.019-0.365-0.122-0.365-0.090 0-0.154 0.102-0.262 0.448-0.077 0.243-0.166 0.448-0.186 0.448-0.026 0-0.109-0.198-0.192-0.448-0.147-0.467-0.179-0.512-0.307-0.467z"></path>
<path fill="#000000" stroke="#none" d="M15.539 20.781c-0.237 0.064-0.435 0.614-0.307 0.851 0.045 0.077 0.205 0.262 0.365 0.416 0.23 0.224 0.282 0.314 0.262 0.461-0.026 0.218-0.256 0.282-0.435 0.115-0.141-0.122-0.256-0.077-0.256 0.096 0 0.25 0.48 0.41 0.768 0.256 0.154-0.083 0.262-0.41 0.211-0.646-0.019-0.115-0.166-0.314-0.346-0.493-0.326-0.314-0.39-0.506-0.211-0.678 0.090-0.090 0.115-0.090 0.282-0.006 0.16 0.083 0.186 0.083 0.224-0.019 0.026-0.070-0.013-0.154-0.128-0.25-0.166-0.147-0.218-0.16-0.429-0.102z"></path>
<path fill="#000000" stroke="#none" d="M19.917 20.787c-0.058 0.038-0.077 0.32-0.064 1.158l0.019 1.114h0.384c0.365 0 0.384-0.013 0.403-0.173s0.006-0.166-0.269-0.166h-0.294v-0.243c0-0.397 0.064-0.525 0.262-0.57 0.141-0.026 0.186-0.070 0.186-0.186 0-0.134-0.032-0.154-0.224-0.154-0.186 0-0.224-0.026-0.224-0.134 0-0.25 0.122-0.378 0.358-0.378 0.198 0 0.224-0.019 0.205-0.147-0.019-0.122-0.064-0.141-0.339-0.16-0.173-0.006-0.358 0.013-0.403 0.038z"></path>
<path fill="#000000" stroke="#none" d="M21.811 21.453l-0.019 0.717-0.282-0.685c-0.243-0.602-0.294-0.685-0.429-0.685h-0.154v1.12c0 1.075 0.006 1.12 0.128 1.12s0.128-0.045 0.128-0.672c0-0.371 0.019-0.672 0.051-0.672 0.026 0 0.16 0.269 0.294 0.595 0.294 0.685 0.333 0.749 0.493 0.749 0.115 0 0.122-0.064 0.122-1.114 0-1.146-0.013-1.19-0.256-1.19-0.032 0-0.070 0.32-0.077 0.717z"></path>
<path fill="#000000" stroke="#none" d="M23.424 20.8c-0.077 0.045-0.102 0.269-0.122 1.126-0.013 0.672 0.006 1.082 0.045 1.107 0.032 0.019 0.237 0.026 0.454 0.019 0.365-0.026 0.39-0.032 0.39-0.179 0-0.141-0.026-0.154-0.288-0.154h-0.288v-0.762l0.224-0.045c0.179-0.032 0.224-0.070 0.224-0.192 0-0.134-0.032-0.154-0.23-0.154-0.224 0-0.224-0.006-0.205-0.243 0.019-0.23 0.026-0.237 0.294-0.256 0.243-0.019 0.275-0.038 0.256-0.16s-0.064-0.141-0.339-0.16c-0.173-0.006-0.365 0.013-0.416 0.051z"></path>
<path fill="#000000" stroke="#none" d="M8.096 20.858c-0.058 0.102-0.467 2.176-0.429 2.214 0.096 0.096 0.205 0.006 0.269-0.224 0.064-0.243 0.083-0.256 0.314-0.256s0.25 0.013 0.288 0.224c0.032 0.166 0.077 0.224 0.166 0.224 0.070 0 0.128-0.019 0.128-0.051 0-0.026-0.090-0.525-0.205-1.114-0.198-0.998-0.224-1.075-0.352-1.075-0.077 0-0.154 0.026-0.179 0.058zM8.275 22.323c-0.090 0.013-0.173 0.006-0.186-0.006-0.019-0.019 0.006-0.23 0.051-0.467l0.083-0.442 0.205 0.896-0.154 0.019z"></path>
<path fill="#000000" stroke="#none" d="M10.24 21.92c0 1.075 0.006 1.12 0.128 1.12s0.128-0.045 0.128-1.12c0-1.075-0.006-1.12-0.128-1.12s-0.128 0.045-0.128 1.12z"></path>
<path fill="#000000" stroke="#none" d="M16.384 21.92c0 1.075 0.006 1.12 0.128 1.12s0.128-0.045 0.128-1.12c0-1.075-0.006-1.12-0.128-1.12s-0.128 0.045-0.128 1.12z"></path>
<path fill="#000000" stroke="#none" d="M17.126 20.96c-0.192 0.211-0.307 0.608-0.301 1.088 0.006 0.64 0.218 0.992 0.614 0.992 0.237 0 0.454-0.198 0.39-0.352-0.032-0.096-0.051-0.096-0.179-0.006-0.192 0.134-0.282 0.128-0.435-0.026-0.237-0.237-0.134-1.376 0.147-1.549 0.038-0.026 0.141 0 0.224 0.051 0.237 0.154 0.339 0.013 0.141-0.198-0.192-0.205-0.416-0.205-0.602 0z"></path>
<path fill="#000000" stroke="#none" d="M18.867 20.973c-0.090 0.102-0.198 0.288-0.237 0.416-0.083 0.256-0.102 0.928-0.038 1.152 0.083 0.262 0.358 0.499 0.576 0.499 0.237 0 0.454-0.198 0.39-0.352-0.032-0.096-0.051-0.096-0.179-0.006-0.192 0.134-0.282 0.128-0.435-0.026-0.237-0.237-0.134-1.376 0.147-1.549 0.038-0.026 0.141 0 0.224 0.051 0.237 0.154 0.339 0.013 0.141-0.198-0.192-0.205-0.384-0.205-0.589 0.013z"></path>
<path fill="#000000" stroke="#none" d="M22.317 20.845c-0.026 0.019-0.045 0.096-0.045 0.16 0 0.083 0.045 0.115 0.16 0.115h0.16v0.992c0 0.947 0.006 0.992 0.128 0.992s0.128-0.045 0.128-0.992v-0.992h0.16c0.128 0 0.16-0.032 0.16-0.16 0-0.154-0.013-0.16-0.403-0.16-0.224 0-0.429 0.019-0.448 0.045z"></path>
<path fill="#000000" stroke="#none" d="M24.41 21.933c0.006 1.018 0.019 1.139 0.115 1.158 0.090 0.019 0.109-0.038 0.128-0.352 0.026-0.506 0.16-0.525 0.39-0.051 0.128 0.256 0.205 0.352 0.307 0.352 0.141 0 0.134-0.109-0.051-0.474-0.083-0.16-0.083-0.211 0.045-0.506 0.109-0.243 0.134-0.41 0.115-0.666-0.045-0.486-0.166-0.595-0.659-0.595h-0.397l0.006 1.133zM25.050 21.152c0.134 0.141 0.198 0.525 0.109 0.71-0.058 0.134-0.371 0.326-0.429 0.262-0.026-0.026-0.051-0.653-0.038-0.896 0.013-0.198 0.192-0.237 0.358-0.077z"></path>
<path fill="#000000" stroke="#none" d="M13.888 21.696c0 0.947 0.077 1.248 0.346 1.318 0.224 0.051 0.41-0.019 0.538-0.218 0.083-0.128 0.109-0.352 0.128-1.050 0.026-0.845 0.019-0.883-0.102-0.883-0.115 0-0.128 0.058-0.154 0.787-0.032 0.806-0.109 1.094-0.294 1.056-0.154-0.032-0.192-0.25-0.198-1.094-0.006-0.704-0.013-0.749-0.134-0.749s-0.128 0.045-0.128 0.832z"></path>
<path fill="#000000" stroke="#none" d="M15.552 24.16c0 0.134-0.032 0.16-0.192 0.16-0.243 0-0.365 0.218-0.275 0.493 0.051 0.154 0.096 0.179 0.326 0.186l0.269 0.013v-0.506c0-0.294-0.026-0.506-0.064-0.506-0.032 0-0.064 0.070-0.064 0.16zM15.45 24.422c0.128 0.051 0.134 0.365 0.013 0.467-0.186 0.154-0.397-0.25-0.218-0.429 0.090-0.090 0.077-0.090 0.205-0.038z"></path>
<path fill="#000000" stroke="#none" d="M14.246 24.205c-0.23 0.326-0.058 0.819 0.282 0.819 0.23 0 0.384-0.205 0.384-0.518 0-0.403-0.448-0.608-0.666-0.301zM14.662 24.192c0.154 0.090 0.166 0.518 0.019 0.672-0.090 0.090-0.122 0.090-0.243 0.013-0.173-0.115-0.218-0.499-0.070-0.646 0.122-0.122 0.134-0.122 0.294-0.038z"></path>
<path fill="#000000" stroke="#none" d="M15.936 24.416c-0.102 0.128-0.102 0.39 0 0.512s0.397 0.102 0.435-0.032c0.026-0.077 0.019-0.083-0.064-0.013-0.115 0.090-0.282 0.045-0.333-0.090-0.026-0.070 0.026-0.090 0.218-0.090 0.205 0 0.256-0.026 0.256-0.115 0-0.25-0.352-0.365-0.512-0.173zM16.307 24.493c0.013 0.051-0.038 0.083-0.141 0.083-0.16 0-0.211-0.064-0.122-0.154 0.064-0.064 0.23-0.019 0.262 0.070z"></path>
<path fill="#000000" stroke="#none"d="M16.602 24.416c-0.051 0.128 0.083 0.288 0.237 0.288 0.147 0 0.224 0.128 0.115 0.198-0.051 0.032-0.147 0.013-0.23-0.045-0.128-0.083-0.147-0.083-0.147 0.006 0 0.122 0.307 0.198 0.442 0.115 0.16-0.102 0.122-0.237-0.102-0.339-0.115-0.051-0.211-0.122-0.211-0.147 0-0.083 0.218-0.134 0.243-0.058 0.013 0.045 0.070 0.077 0.122 0.077 0.083 0 0.083-0.019 0.019-0.096-0.102-0.128-0.442-0.128-0.486 0z"></path>
<path fill="#000000" stroke="#none" d="M17.344 24.416c-0.090 0.109 0 0.134 0.109 0.026 0.077-0.077 0.275-0.038 0.275 0.058 0 0.026-0.096 0.077-0.205 0.109-0.166 0.051-0.211 0.096-0.211 0.224 0 0.147 0.026 0.16 0.275 0.166l0.269 0.013v-0.243c0-0.134-0.019-0.288-0.038-0.346-0.051-0.128-0.365-0.134-0.474-0.006zM17.638 24.864c-0.134 0.102-0.23 0.070-0.23-0.064 0-0.102 0.198-0.16 0.288-0.083 0.038 0.038 0.019 0.090-0.058 0.147z"></path>
</symbol>
<symbol id="icon-map-pin" viewBox="0 0 32 32">
<path fill="none" stroke="#00000" style="stroke: var(--color1, #00000)" stroke-linejoin="round" stroke-linecap="round" stroke-miterlimit="4" stroke-width="1.3333" d="M26.667 13.819c0 7.635-10.667 14.181-10.667 14.181s-10.667-6.547-10.667-14.181c0-5.423 4.776-9.819 10.667-9.819s10.667 4.396 10.667 9.819v0z"></path>
<path fill="none" stroke="#00000" style="stroke: var(--color1, #90000)" stroke-linejoin="round" stroke-linecap="round" stroke-miterlimit="4" stroke-width="1.3333" d="M16 18.667c2.209 0 4-1.791 4-4s-1.791-4-4-4v0c-2.209 0-4 1.791-4 4s1.791 4 4 4v0z"></path>
</symbol>
<symbol id="icon-phone" viewBox="0 0 32 32">
<path fill="none" stroke="#00000" style="stroke: var(--color1, #00000)" stroke-linejoin="round" stroke-linecap="round" stroke-miterlimit="4" stroke-width="1.3333" d="M26.667 21.337v3.217c0 0.003 0 0.007 0 0.010 0 1.185-0.96 2.145-2.145 2.145-0.068 0-0.135-0.003-0.202-0.009l0.009 0.001c-3.481-0.388-6.626-1.563-9.338-3.343l0.081 0.050c-2.608-1.674-4.762-3.828-6.386-6.353l-0.050-0.083c-1.736-2.644-2.912-5.804-3.285-9.205l-0.008-0.095c-0.006-0.058-0.009-0.125-0.009-0.193 0-1.185 0.96-2.145 2.145-2.145h3.219c0.006-0 0.013-0 0.020-0 1.079 0 1.972 0.797 2.123 1.834l0.001 0.012c0.136 1.029 0.387 2.040 0.751 3.013 0.295 0.784 0.107 1.668-0.483 2.264l-1.363 1.361c1.555 2.7 3.736 4.881 6.353 6.392l0.083 0.044 1.363-1.361c0.388-0.383 0.92-0.619 1.509-0.619 0.271 0 0.53 0.050 0.769 0.142l-0.015-0.005c0.973 0.363 1.984 0.613 3.013 0.751 1.050 0.151 1.847 1.045 1.847 2.125 0 0.019-0 0.037-0.001 0.056l0-0.003z"></path>
</symbol>
<symbol id="icon-mail" viewBox="0 0 32 32">
<path fill="none" stroke="#9da4bd" style="stroke: var(--color1, #9da4bd)" stroke-linejoin="round" stroke-linecap="round" stroke-miterlimit="4" stroke-width="1.3333" d="M6.4 6.667h19.2c1.32 0 2.4 1.049 2.4 2.333v14c0 1.283-1.080 2.333-2.4 2.333h-19.2c-1.32 0-2.4-1.051-2.4-2.333v-14c0-1.284 1.080-2.333 2.4-2.333z"></path>
<path fill="none" stroke="#9da4bd" style="stroke: var(--color1, #9da4bd)" stroke-linejoin="round" stroke-linecap="round" stroke-miterlimit="4" stroke-width="1.3333" d="M26.667 9.333l-10.667 8-10.667-8"></path>
</symbol>
<symbol id="icon-clock" viewBox="0 0 32 32">
<path fill="#212121" style="fill: var(--color1, #212121)" d="M31.296 15.301c-0.001-8.452-6.855-15.303-15.308-15.301s-15.303 6.855-15.301 15.308c0.002 6.788 4.422 12.543 10.541 14.545l0.108 0.031c0.061 0.019 0.123 0.029 0.187 0.029 0.12 0 0.238-0.032 0.342-0.094 0.135-0.080 0.236-0.207 0.283-0.357l3.865-12.25c1.054-0.004 1.906-0.859 1.906-1.913 0-1.056-0.856-1.913-1.913-1.913-0.303 0-0.59 0.071-0.845 0.196l0.011-0.005-5.106-5.107c-0.114-0.11-0.271-0.179-0.443-0.179-0.352 0-0.638 0.286-0.638 0.638 0 0.172 0.068 0.328 0.179 0.443l-0-0 5.103 5.109c-0.121 0.241-0.191 0.525-0.191 0.826 0 0.602 0.283 1.137 0.723 1.48l0.004 0.003-3.682 11.673c-7.278-2.681-11.004-10.754-8.324-18.032s10.754-11.004 18.032-8.323c7.278 2.681 11.004 10.754 8.323 18.032-1.345 3.581-4.003 6.406-7.374 7.938l-0.088 0.036-0.398-1.874c-0.063-0.291-0.318-0.506-0.624-0.506-0.164 0-0.313 0.062-0.426 0.163l0.001-0.001-3.837 3.426c-0.132 0.117-0.214 0.287-0.214 0.477 0 0.283 0.185 0.524 0.441 0.606l0.005 0.001 4.899 1.563c0.058 0.020 0.126 0.031 0.196 0.031 0.352 0 0.637-0.285 0.637-0.637 0-0.047-0.005-0.093-0.015-0.138l0.001 0.004-0.391-1.839c5.528-2.374 9.329-7.772 9.329-14.057 0-0.011 0-0.023-0-0.034v0.002zM15.992 14.664c0.352 0 0.638 0.286 0.638 0.638s-0.285 0.638-0.638 0.638v0c-0.352 0-0.638-0.286-0.638-0.638s0.286-0.638 0.638-0.638v0zM18.092 29.528l2.184-1.948 0.603 2.84-2.787-0.892z"></path>
<path fill="#2196f3" style="fill: var(--color2, #2196f3)" d="M15.354 3.185v1.275c0 0.352 0.286 0.638 0.638 0.638s0.638-0.285 0.638-0.638v0-1.275c0-0.352-0.285-0.638-0.638-0.638s-0.638 0.285-0.638 0.638v0zM3.876 14.664c-0.352 0-0.638 0.286-0.638 0.638s0.285 0.638 0.638 0.638h1.275c0.352 0 0.638-0.286 0.638-0.638s-0.285-0.638-0.638-0.638h-1.275zM28.108 15.939c0.352 0 0.638-0.286 0.638-0.638s-0.285-0.638-0.638-0.638h-1.275c-0.352 0-0.638 0.286-0.638 0.638s0.285 0.638 0.638 0.638h1.275z"></path>
</symbol>
<symbol id="icon-facebook" viewBox="0 0 32 32">
<path d="M21.328 5.312h2.923v-5.088c-1.232-0.143-2.66-0.224-4.108-0.224-0.052 0-0.104 0-0.156 0l0.008-0c-4.213 0-7.099 2.65-7.099 7.52v4.48h-4.646v5.688h4.646v14.312h5.699v-14.31h4.459l0.707-5.688h-5.168v-3.922c0-1.643 0.443-2.768 2.734-2.768z"></path>
</symbol>
<symbol id="icon-instagram" viewBox="0 0 32 32">
<path d="M30.625 9c0-4.208-3.416-7.625-7.625-7.625h-14c-4.208 0-7.625 3.417-7.625 7.625 0 0 0 14 0 14 0 4.209 3.417 7.625 7.625 7.625 0 0 14 0 14 0 4.209 0 7.625-3.416 7.625-7.625 0 0 0-14 0-14zM29.375 9v14c0 3.518-2.857 6.375-6.375 6.375h-14c-3.518 0-6.375-2.857-6.375-6.375v-14c0-3.518 2.857-6.375 6.375-6.375h14c3.518 0 6.375 2.857 6.375 6.375z"></path>
<path d="M16 8.75c-4.002 0-7.25 3.249-7.25 7.25s3.249 7.25 7.25 7.25c4.002 0 7.25-3.249 7.25-7.25s-3.249-7.25-7.25-7.25zM16 10c3.311 0 6 2.689 6 6s-2.689 6-6 6c-3.311 0-6-2.689-6-6s2.689-6 6-6z"></path>
<path d="M24.5 5.375c-1.173 0-2.125 0.952-2.125 2.125s0.952 2.125 2.125 2.125c1.173 0 2.125-0.952 2.125-2.125s-0.952-2.125-2.125-2.125zM24.5 6.625c0.483 0 0.875 0.392 0.875 0.875s-0.392 0.875-0.875 0.875c-0.483 0-0.875-0.392-0.875-0.875s0.392-0.875 0.875-0.875z"></path>
</symbol>
<symbol id="icon-linkedin" viewBox="0 0 32 32">
<path d="M31.992 32h0.008v-11.738c0-5.741-1.237-10.163-7.947-10.163-3.227 0-5.392 1.77-6.277 3.45h-0.093v-2.914h-6.365v21.363h6.627v-10.578c0-2.786 0.528-5.48 3.978-5.48 3.398 0 3.448 3.179 3.448 5.658v10.402h6.621zM0.528 10.635h6.635v21.365h-6.635v-21.365zM3.843 0c-2.123 0-3.843 1.721-3.843 3.843v0c0 2.12 1.722 3.878 3.843 3.878 2.12 0 3.842-1.757 3.842-3.878s-1.72-3.841-3.841-3.843h-0z"></path>
</symbol>
<symbol id="icon-smartphone" viewBox="0 0 20 32">
<path d="M17.003 0h-14.005c-1.655 0-3.001 1.346-3.001 3.001v26.009c0 1.655 1.346 3.001 3.001 3.001h14.005c1.655 0 3.001-1.346 3.001-3.001v-26.009c0-1.655-1.346-3.001-3.001-3.001zM2.998 2.001h14.005c0.552 0 1 0.448 1 1v0 21.007h-16.006v-21.007c0-0.552 0.448-1 1-1v0zM17.003 30.011h-14.005c-0.552 0-1-0.448-1-1v0-3.001h16.006v3.001c0 0.552-0.448 1-1 1v0z"></path>
<path d="M4.706 27.488c0.18 0.164 0.293 0.399 0.293 0.66s-0.113 0.497-0.292 0.66l-0.001 0.001c-0.186 0.17-0.435 0.275-0.708 0.275s-0.522-0.104-0.709-0.275l0.001 0.001c-0.18-0.164-0.293-0.399-0.293-0.66s0.113-0.497 0.292-0.66l0.001-0.001c0.186-0.17 0.435-0.275 0.708-0.275s0.522 0.104 0.709 0.275l-0.001-0.001z"></path>
</symbol>
<symbol id="icon-twitter" viewBox="0 0 32 32">
<path d="M32 6.078c-1.1 0.493-2.376 0.857-3.713 1.028l-0.068 0.007c1.36-0.817 2.382-2.078 2.873-3.579l0.013-0.046c-1.198 0.722-2.591 1.273-4.076 1.573l-0.084 0.014c-1.2-1.279-2.9-2.076-4.787-2.076-3.622 0-6.558 2.936-6.558 6.558 0 0.001 0 0.003 0 0.004v-0c0 0.52 0.043 1.021 0.152 1.496-5.454-0.266-10.28-2.88-13.522-6.861-0.564 0.949-0.899 2.092-0.902 3.313v0.001c0 2.272 1.171 4.286 2.914 5.451-1.091-0.030-2.107-0.325-2.994-0.823l0.033 0.017v0.072c0.003 3.165 2.236 5.807 5.213 6.44l0.043 0.008c-0.499 0.136-1.071 0.215-1.662 0.215-0.020 0-0.041-0-0.061-0l0.003 0c-0.419 0-0.843-0.024-1.242-0.112 0.85 2.598 3.261 4.509 6.13 4.57-2.215 1.746-5.046 2.8-8.123 2.8-0.004 0-0.008 0-0.012 0h0.001c-0.538 0-1.053-0.026-1.57-0.091 2.827 1.846 6.287 2.944 10.004 2.944 0.021 0 0.042-0 0.063-0h-0.003c12.072 0 18.672-10 18.672-18.669 0-0.288-0.010-0.57-0.024-0.848 1.299-0.936 2.391-2.065 3.258-3.356l0.030-0.047z"></path>
</symbol>
<symbol id="icon-close-black-18dp-2-1-1" viewBox="0 0 32 32">
<path d="M26.671 7.304l-1.97-1.97-7.809 7.809-7.809-7.809-1.97 1.97 7.809 7.809-7.809 7.809 1.97 1.97 7.809-7.809 7.809 7.809 1.97-1.97-7.809-7.809 7.809-7.809z"></path>
</symbol>
<symbol id="icon-check" viewBox="0 0 42 32">
<path stroke-linejoin="miter" stroke-linecap="butt" stroke-miterlimit="4" stroke-width="0.64" d="M6.264 15.206l-0.221-0.211-0.221 0.208-3.085 2.925 0.243 0.234 11.411 10.882 0.221-0.211 24.261-23.144-0.243-0.23-3.044-2.903-0.221 0.211-20.974 19.992-8.127-7.752z"></path>
</symbol>
<symbol id="icon-email" viewBox="0 0 32 32">
<path d="M26.671 5.334h-21.337c-1.467 0-2.653 1.2-2.653 2.667l-0.014 16.003c0 1.467 1.2 2.667 2.667 2.667h21.337c1.467 0 2.667-1.2 2.667-2.667v-16.003c0-1.467-1.2-2.667-2.667-2.667zM26.137 11.003l-9.427 5.893c-0.201 0.126-0.446 0.2-0.708 0.2s-0.506-0.075-0.713-0.204l0.006 0.003-9.427-5.893c-0.336-0.201-0.557-0.562-0.557-0.975 0-0.626 0.507-1.133 1.133-1.133 0.233 0 0.449 0.070 0.629 0.19l-0.004-0.003 8.935 5.587 8.935-5.588c0.176-0.118 0.392-0.188 0.625-0.188 0.626 0 1.133 0.507 1.133 1.133 0 0.413-0.221 0.775-0.552 0.973l-0.005 0.003z"></path>
</symbol>
<symbol id="icon-phone" viewBox="0 0 32 32">
<path d="M24.886 19.777l-3.268-0.373c-0.090-0.011-0.194-0.018-0.299-0.018-0.707 0-1.348 0.287-1.811 0.75l-2.368 2.368c-3.67-1.894-6.586-4.811-8.429-8.373l-0.051-0.108 2.383-2.377c0.463-0.463 0.75-1.104 0.75-1.811 0-0.106-0.006-0.21-0.019-0.312l0.001 0.012-0.373-3.243c-0.155-1.288-1.241-2.276-2.557-2.276-0.001 0-0.002 0-0.003 0h-2.226c-1.454 0-2.664 1.209-2.575 2.664 0.683 10.988 9.472 19.763 20.448 20.446 1.453 0.089 2.664-1.12 2.664-2.575v-2.226c0-0.004 0-0.008 0-0.012 0-1.308-0.985-2.386-2.253-2.533l-0.012-0.001z"></path>
</symbol>
<symbol id="icon-person" viewBox="0 0 32 32">
<path d="M16.003 16.003c2.946 0 5.334-2.388 5.334-5.334s-2.388-5.334-5.334-5.334v0c-2.946 0-5.334 2.388-5.334 5.334s2.388 5.334 5.334 5.334v0zM16.003 18.67c-3.561 0-10.668 1.787-10.668 5.334v1.334c0 0.733 0.599 1.334 1.334 1.334h18.67c0.733 0 1.334-0.601 1.334-1.334v-1.334c0-3.547-7.109-5.334-10.668-5.334z"></path>
</symbol>
<symbol id="icon-send" viewBox="0 0 32 32">
<path d="M32.011 0l-32.011 18.006 10.23 3.788 15.779-14.792-12.002 16.192 0.009 0.003-0.012-0.003v8.816l5.737-6.693 7.269 2.692 5-28.010z"></path>
</symbol>
<symbol id="icon-menu_open" viewBox="0 0 32 32">
    <path d="M6.4 11.734v-2.134h19.2v2.134h-19.2zM6.4 17.066h19.2v-2.133h-19.2v2.133zM6.4 22.4h19.2v-2.134h-19.2v2.134z"></path>
</symbol>
<symbol id="icon-menu_close" viewBox="0 0 32 32">
<path d="M31.453 3.168l-3.168-3.168-12.56 12.558-12.558-12.558-3.168 3.168 12.558 12.558-12.558 12.56 3.168 3.168 12.558-12.56 12.56 12.56 3.168-3.168-12.56-12.56 12.56-12.558z"></path>
</symbol>
</defs>
</svg>
